<svg xmlns="http://www.w3.org/2000/svg" viewBox="0 0 227.24 243.28"><defs><style>.cls-1{fill:#c30f2f;}.cls-2{fill:#dc0531;}.cls-3{fill:#dd0633;}.cls-4{fill:#fff;}.cls-5{fill:#c31131;}</style></defs><g id="Layer_2" data-name="Layer 2"><g id="Layer_1-2" data-name="Layer 1"><g id="Layer_2-2" data-name="Layer 2-2"><path class="cls-1" d="M227.24,40c-5.77,50.07-11.51,100-17.3,150.18l-49.83,27.71c-14.17,7.86-28.33,15.72-42.56,23.45-1.55.8-2.26,1.13-3.9,1.88h0v0c-.06-2.29-.06-4.38-.06-7.61q0-42.66.06-85.33h29.91l14.18,35h26.94c-13.55-30.38-26.79-60.16-40.12-89.91q-15.37-34.3-30.91-68.55s0,0,0,0q0-4.47,0-8.94c0-6,0-11.92,0-17.89,13.18,4.47,26.41,8.82,39.54,13.44,22.72,8,45.37,16.16,68,24.27C223.07,38.38,224.92,39.14,227.24,40Z"/><path class="cls-2" d="M113.59,235.65c0,2.29,0,5.26.06,7.61v0h0c-14-7.65-29.3-16-43.29-23.67-17.55-9.66-35.06-19.38-53-29.3Q8.7,115.31,0,39.93c18-6.44,35.45-12.74,53-19C71.62,14.28,90.33,7.84,109,1.25c0,0,3.07-.9,4.62-1.25V26.85h0c-.74,1.18-1.44,2.39-2.07,3.64Q80.91,99.29,50.3,168.1c-2.52,5.65-5,11.32-7.65,17.43H69.52q7.24-17.94,14.24-35.21h29.89Q113.65,193,113.59,235.65Z"/><path class="cls-3" d="M113.65,127.71H93.35c2.37-5.7,4.51-11.06,6.81-16.35,4.45-10.24,9-20.45,13.48-30.68Z"/><path class="cls-4" d="M144.52,95.41q-15.37-34.3-30.91-68.55c-.74,1.18-1.44,2.39-2.07,3.64Q80.91,99.29,50.3,168.1c-2.52,5.65-5,11.32-7.65,17.43H69.52q7.24-17.94,14.24-35.21h59.76l14.18,35h26.94C171.09,154.94,157.85,125.16,144.52,95.41Zm-30.87,32.3H93.35c2.37-5.7,4.51-11.06,6.81-16.35,4.45-10.24,9-20.45,13.48-30.68v0c2.89,6.31,5.88,12.57,8.63,18.94,3.89,9,7.6,18.16,11.74,28.09Z"/><path class="cls-5" d="M134,127.74l-20.37,0v-47c2.89,6.31,5.88,12.57,8.63,18.94C126.17,108.65,129.88,117.81,134,127.74Z"/></g></g></g></svg>