<svg xmlns="http://www.w3.org/2000/svg" viewBox="0 0 468.15 522.26"><defs><style>.cls-1{fill:#0377bd;}.cls-2{fill:#049be4;}.cls-3{fill:#ececed;}.cls-4{fill:#ededed;}.cls-5{fill:#099ce3;}.cls-6{fill:#e9eced;}.cls-7{fill:#fdfefe;}</style></defs><g id="Layer_2" data-name="Layer 2"><g id="Layer_2-2" data-name="Layer 2"><path class="cls-1" d="M41.25,467.69Q20.63,233.84,0,0H468.15L426.88,468c-18.05,5.19-35.76,10.31-53.48,15.37q-66.9,19.11-133.82,38.07a19.2,19.2,0,0,1-9.94.32Q137.27,495.63,45,469.12C44,468.82,43,468.36,41.25,467.69ZM234.11,219.87H170.62c1,19,2,37,3,55.79h60.45l0,80.08c-10-3.17-20-6.23-30-9.53-8.89-2.94-17.71-6.14-26.36-9.16-.55-11.75-1.06-22.83-1.56-33.78H121.22c1.39,25.41,2.74,50.28,4.1,75.2l108.79,35.86v66L389.21,436c0-5.31-.32-9.83.06-14.28,1.51-17.67,3.3-35.31,4.87-53,1-11.5,1.78-23,2.78-34.53,1.61-18.51,3.35-37,5-55.53,1-11.29,1.82-22.6,2.81-33.88,1.61-18.09,3.34-36.17,4.92-54.26,1-11.5,1.76-23,2.79-34.52,1.58-17.45,3.33-34.88,5-52.32,1.26-13.4,2.53-26.79,3.67-40.2.63-7.36,1-14.74,1.51-22.45H234.11v68.6c-2.35.13-4.71.36-7.06.36q-56.12,0-112.25,0h-7.41c1.45,18.76,2.83,36.63,4.24,54.82,29.92,0,59.14,0,88.36,0,11.38,0,22.76.25,34.15.38Z"/><path class="cls-2" d="M234.11,109.68V41.08H422.56c-.51,7.71-.88,15.09-1.51,22.45-1.14,13.41-2.41,26.8-3.67,40.2-1.63,17.44-3.38,34.87-5,52.32-1,11.5-1.78,23-2.79,34.52-1.58,18.09-3.31,36.17-4.92,54.26-1,11.28-1.82,22.59-2.81,33.88-1.63,18.51-3.37,37-5,55.53-1,11.51-1.76,23-2.78,34.53-1.57,17.66-3.36,35.3-4.87,53-.38,4.45-.06,9-.06,14.28l-155.1,44.34v-66l0-.63a61.12,61.12,0,0,0,6.2-1.38q40.35-13.27,80.66-26.63c7.27-2.4,14.54-4.82,21.87-7.25,5.53-89.71,11-178.83,16.55-268.38-10.12,0-19.33,0-28.55,0l-96.71.31A1.47,1.47,0,0,0,234.11,109.68Z"/><path class="cls-3" d="M234.11,414.33,125.32,378.47c-1.36-24.92-2.71-49.79-4.1-75.2h54.92c.5,11,1,22,1.56,33.78,8.65,3,17.47,6.22,26.36,9.16,10,3.3,20,6.36,30,9.53a1.75,1.75,0,0,1-.06.88l.09,57.08Z"/><path class="cls-4" d="M234.14,165.28c-11.39-.13-22.77-.36-34.15-.38-29.22-.05-58.44,0-88.36,0-1.41-18.19-2.79-36.06-4.24-54.82h7.41q56.13,0,112.25,0c2.35,0,4.71-.23,7.06-.36a1.47,1.47,0,0,1,0,.69v54.19A4.36,4.36,0,0,1,234.14,165.28Z"/><path class="cls-2" d="M234,355.74l0-80.08a2.21,2.21,0,0,0-.07-.72h60.66c-1.43,21.51-2.76,41.64-4.13,62.16L234,356.62A1.75,1.75,0,0,0,234,355.74Z"/><path class="cls-5" d="M234.11,219.87l0-54.59a4.36,4.36,0,0,0,0-.72h67.48c-1.42,19.12-2.75,37.05-4.14,55.78H234Z"/><path class="cls-6" d="M234.07,275.66H173.62c-1-18.76-2-36.79-3-55.79h63.49l-.07.47q0,27.3,0,54.6A2.21,2.21,0,0,1,234.07,275.66Z"/><path class="cls-7" d="M234,274.94q0-27.3,0-54.6h63.39c1.39-18.73,2.72-36.66,4.14-55.78H234.09V110.37l96.71-.31c9.22,0,18.43,0,28.55,0-5.52,89.55-11,178.67-16.55,268.38-7.33,2.43-14.6,4.85-21.87,7.25Q280.61,399,240.27,412.32a61.12,61.12,0,0,1-6.2,1.38L234,356.62l56.55-19.52c1.37-20.52,2.7-40.65,4.13-62.16Z"/></g></g></svg>