<svg xmlns="http://www.w3.org/2000/svg" viewBox="0 0 599.36 674.83"><defs><style>.cls-1{fill:#d13a2d;}.cls-2{fill:#fefcfb;}.cls-3{fill:#e84032;}.cls-4{fill:#e83f31;}.cls-5{fill:#d0382b;}</style></defs><g id="Layer_2" data-name="Layer 2"><g id="Layer_1-2" data-name="Layer 1"><path class="cls-1" d="M52.44,610.08C35,406.88,17.53,203.94,0,0H599.36c-17.54,204.15-35,407.07-52.51,611.18Q425.08,643,303.78,674.43c-4,1-8.84-.09-13-1.17q-113.56-29.32-227-59C60,613.33,56.53,611.63,52.44,610.08Zm245-144.61-77.14-15.41c-2.9-22.39-5.65-43.6-8.34-64.42H135.26c3.5,41.19,6.92,81.4,10.37,122l151.79,40.82v75.16L508.58,569q22.07-258.12,44.11-516.13H297.32V126H112.8c6.61,76.61,13,150.18,19.48,225.67H297.42Z"/><path class="cls-2" d="M297.42,351.89H132.28c-6.51-75.49-12.87-149.06-19.48-225.67H486.61c-2.41,26.79-4.48,49.73-6.74,74.87H192.21c2,25.23,3.83,48.7,5.71,72.58h276c-6.89,80-13.52,156.76-20.24,234.73L297.42,548.62,145.63,507.8c-3.45-40.56-6.87-80.77-10.37-122H212c2.69,20.82,5.44,42,8.34,64.42l77.14,15.4,83.39-15.55c3.94-33.53,7.66-65.24,11.53-98.22Z"/><path class="cls-3" d="M297.42,548.62,453.66,508.4c6.72-78,13.35-154.75,20.24-234.73H297.39l.06-72.58H479.87c2.26-25.14,4.33-48.08,6.74-74.87H297.32V53H552.69q-22.05,258-44.11,516.13L297.42,623.77Z"/><path class="cls-4" d="M297.42,351.89h95c-3.87,33-7.59,64.69-11.53,98.22l-83.39,15.55Z"/><path class="cls-5" d="M297.45,201.09l-.06,72.58H197.92c-1.88-23.88-3.73-47.35-5.71-72.58Z"/></g></g></svg>