<svg xmlns="http://www.w3.org/2000/svg" viewBox="0 0 1015.26 1145.37"><defs><style>.cls-1{fill:#d9b92e;}.cls-2{fill:#ededed;}.cls-3{fill:#fed73a;}.cls-4{fill:#fdfefe;}</style></defs><g id="Layer_2" data-name="Layer 2"><g id="Layer_1-2" data-name="Layer 1"><path class="cls-1" d="M0,0C30.77,343.06,61.45,685.1,92.25,1028.35c3.86,1.73,6.1,3.08,8.52,3.77,66,18.59,133.92,37.72,201.81,56.79S438.39,1127,504.5,1145.37c101.72-28,218.6-59.44,320.21-87.85,32.84-9.18,65.57-18.75,98.52-28.19C954,685.16,984.58,343.14,1015.26,0ZM465.93,895.69,173.41,814.6V695.91l194.32,54V221.1h98.2Zm378.45,76.58L509,1064.6V90.14H923.11C896.9,383.75,870.75,676.78,844.38,972.27Z"/><path class="cls-2" d="M465.93,221.1V895.69L173.41,814.6V695.91l194.32,54V221.1Z"/><path class="cls-3" d="M509,90.14V1064.6l335.41-92.33c26.37-295.49,52.52-588.52,78.73-882.13ZM848.58,495.61C839.91,606,831.41,714,822.77,823.9L550,895V777l192-51.17c1.75-32.15,3.48-63.79,5.42-99.3L549.25,660.6V222.07H870.74c-3.3,39.84-6.46,78.08-9.77,118H648.4V519.78Z"/><path class="cls-4" d="M648.4,340V519.78l200.18-24.17C839.91,606,831.41,714,822.77,823.9L550,895V777l192-51.17c1.75-32.15,3.48-63.79,5.42-99.3L549.25,660.6V222.07H870.74c-3.3,39.84-6.46,78.08-9.77,118Z"/></g></g></svg>