<svg xmlns="http://www.w3.org/2000/svg" viewBox="0 0 648.17 916.16"><defs><style>.cls-1{fill:none;}.cls-2{fill:#599636;}.cls-3{fill:#6cac48;}.cls-4{fill:#c2bfbf;}</style></defs><g id="Layer_2" data-name="Layer 2"><g id="Layer_1-2" data-name="Layer 1"><rect class="cls-1" width="648.17" height="916.16"/><path class="cls-2" d="M312.43,15.09l23.69,44.5A133.09,133.09,0,0,0,354,81.84c19.81,19.83,38.68,40.62,55.6,62.83,40.14,52.71,67.22,111.24,86.56,174.55a429.35,429.35,0,0,1,18.36,118.46c1.94,120-39.17,223-122.06,308.53a350.48,350.48,0,0,1-43.56,37.23c-8.21,0-12.1-6.3-15.48-12.1-6.3-10.62-10.15-22.75-12.1-34.81-2.91-14.51-4.82-29-3.88-44v-6.77C316.82,684.32,309.54,18.51,312.43,15.09Z"/><path class="cls-3" d="M312.43,13.67c-1-1.94-1.94-.47-2.91.48.47,9.71-2.92,18.36-8.21,26.63C295.48,49,287.77,55.29,280,62.06c-43,37.23-76.85,82.2-104,132.49-36,67.64-54.6,140.19-59.87,216.56-2.42,27.56,8.71,124.76,17.39,152.8,23.69,74.46,66.27,136.86,121.37,191a531.71,531.71,0,0,0,43,36.76c4.36,0,4.83-3.89,5.83-6.77A132.33,132.33,0,0,0,308.1,766l9.72-72.51Z"/><path class="cls-4" d="M336.12,815.84c1-11.1,6.3-20.31,12.1-29.49-5.83-2.41-10.16-7.21-13.54-12.57a89.7,89.7,0,0,1-7.21-15.95c-6.77-20.31-8.22-41.61-10.16-62.36V682.9c-2.41,1.94-2.91,18.36-2.91,20.81A481.48,481.48,0,0,1,305.69,769c-1.44,8.71-2.42,17.4-7.77,25.14a10,10,0,0,0,.47,3.38c8.71,25.64,11.1,51.74,12.57,78.35v9.76c0,11.59-.47,9.15,9.15,13,3.89,1.45,8.22,1.95,12.1,4.83,2.91,0,3.38-2.41,3.38-4.35l-1.44-16V838.61c-.47-7.77,1-15.48,1.94-22.75Z"/></g></g></svg>