<svg xmlns="http://www.w3.org/2000/svg" viewBox="0 0 735.79 848.81"><defs><style>.cls-1{fill:#90c43f;}.cls-2{fill:#46493c;}.cls-3{fill:#fbfcf9;}.cls-4{fill:#474a3c;}.cls-5{fill:#45483b;}.cls-6{fill:#90c442;}.cls-7{fill:#92c444;}</style></defs><g id="Layer_2" data-name="Layer 2"><g id="Layer_1-2" data-name="Layer 1"><path class="cls-1" d="M357.81,4.9,366,0l8.68,4.9c1.74,1,6.82,3.71,13.12,7.34,108.5,62.65,348,200.55,348,200.55h0c-.56,118.35-1.89,308.38,0,426.71h0C631.88,696.93,464.91,789.28,362.16,848.81h0C252,785.33,110.22,689.7,0,626.29H0C.27,500,.34,338.9,0,212.6,84.45,164.37,189.65,103.7,273.79,55,302,38.61,329.81,21.6,357.81,4.9ZM519.87,489V312.77l-44.32-24.42v96.54l-22-8.22-63,36.48v76L455.1,526.6ZM345.48,411.89l-64.71-37.26-64.33,37.15v76.13l64.41,37.22,64.63-37.38ZM42.64,410.71v100.4l42-24.16V437.4l21.73-12.73,21.68,12.79v49.7l42.61,23.91V410.92L106.3,374ZM628.58,524.92l43.73-24.45L607.92,463V437.11l20.92-11.7L649,437.67c.89,8,1.62,14.66,2.62,23.72L693.46,437V412.24L629,374.76l-64.89,37.47v75.89Zm0-88.88-11.47,7.26v13.42l12,6.89L641.12,456c-.21-4.74-.39-8.78-.57-13Z"/><path class="cls-2" d="M519.87,489.73,455.1,527.38,390.53,490v-76l63-36.48,22,8.23V289.13l44.32,24.42Zm-85.64-50.5v25.49l21.18,11.95,20.35-12.41V439.18L455,427.05Z"/><path class="cls-3" d="M345.48,412.67v75.85l-64.63,37.39-64.41-37.22V412.56l64.33-37.15ZM279.33,423.9,259,436.28v24.35l21,11.89L300.6,460.2V436.43Z"/><path class="cls-4" d="M42.64,411.49l63.66-36.74,64.39,36.95V511.84l-42.61-23.91V438.24L106.4,425.45,84.67,438.18v49.55l-42,24.16Z"/><path class="cls-2" d="M628.58,525.7l-64.46-36.8V413L629,375.54,693.46,413v24.78l-41.82,24.38c-1-9.06-1.73-15.69-2.62-23.72l-20.18-12.27-20.92,11.71v25.84l64.39,37.52Z"/><path class="cls-5" d="M628.54,436.82l12,6.9c.18,4.24.36,8.28.57,13-4,2.5-7.74,4.9-12.06,7.65l-12-6.89V444.08Z"/><path class="cls-6" d="M434.23,439.23,455,427.05l20.8,12.13v25.08l-20.35,12.41-21.18-11.95Z"/><path class="cls-7" d="M279.33,423.9l21.27,12.53V460.2L280,472.52l-21-11.89V436.28Z"/></g></g></svg>