<svg xmlns="http://www.w3.org/2000/svg" viewBox="0 0 767.46 683.93"><defs><style>.cls-1{fill:#62d9fa;}.cls-2{fill:#61d9fa;}</style></defs><g id="Layer_2" data-name="Layer 2"><g id="Layer_1-2" data-name="Layer 1"><path class="cls-1" d="M159.67,212c-2.13-12.14-4.62-24.86-6.53-37.67-5.54-37-7.54-74.05,2.06-110.77,5.06-19.37,13.42-37.08,29.94-49.49,20.05-15.06,42.7-15.69,66-10.48,32.32,7.23,60.34,23.48,86.64,42.79,15.61,11.46,30.4,24.05,46,36.49,8.22-7,16.55-14.42,25.14-21.48C434.86,40.1,462.51,21.57,494,9.44,511.66,2.64,529.9-1.73,548.94.66c27.9,3.5,45.72,20.08,56.37,45.25,11.5,27.16,14.22,55.86,12.08,84.7-1.94,26.09-6.6,52-10.06,77.93-.15,1.12-.37,2.22-.71,4.2,7,2.42,14.08,4.76,21.07,7.26,34.8,12.45,68.38,27.41,97.26,51a161.66,161.66,0,0,1,25.43,25.81c24.24,31.23,22.39,65.72-3.72,95.53-23.31,26.61-52.89,44-84.69,58-15.86,7-32.37,12.48-48.58,18.66-1.67.63-3.33,1.3-5.7,2.22,1.59,8.62,3.14,17.08,4.71,25.53,4.79,25.67,7.49,51.55,6.48,77.65-1.08,28.07-5,55.7-21.41,79.59-15.38,22.37-37.32,31.23-64.06,28.78-39.51-3.62-72.37-22.79-103.54-45.27C415.45,627,402.23,615,388.45,603.68c-1.2-1-2.5-1.87-4.19-3.13-9.11,7.79-17.91,15.66-27.08,23.07C329,646.45,299,666.46,264.07,677.68c-17.83,5.72-36.1,8.58-54.65,3.94-25.13-6.29-39.87-23.87-48.8-47-11.71-30.33-12.9-62-10-93.86,2.07-23.09,5.89-46,9-69.67-12-4.39-24.91-8.82-37.59-13.82-32.51-12.81-63.42-28.52-89.3-52.5C14,387.37-.47,367.35,0,340.21c.34-19.49,9.32-35.55,21.85-49.76,20.82-23.59,46.88-40,75.21-52.8C117.21,228.57,138,220.83,159.67,212ZM454.05,463.65c1.43-2,2.82-3.79,4.09-5.67A887.61,887.61,0,0,0,521,348.79c2.49-5.12,2.29-9.2-.13-14.15a841.93,841.93,0,0,0-63.35-108.88c-1.39-2-3.07-3.86-4.57-5.74-20-1-39.61-2.73-59.21-2.67-24.86.07-49.74,1.41-74.58,2.75-3.25.17-7.45,2.77-9.32,5.53A825.84,825.84,0,0,0,246,336.56c-2.09,4.39-2,8,.23,12.24,9.82,18.31,18.88,37.06,29.28,55,11.88,20.51,24.9,40.36,37,59.82A784.09,784.09,0,0,0,454.05,463.65Zm145.08-27.49c25.51-7.92,50.74-17.81,74.51-31.23,16.81-9.48,32.56-20.33,45.54-34.83,16.39-18.32,17.19-34.23,2.16-53.34A98,98,0,0,0,707.13,302c-32-26.68-69.79-42-108.38-54.43l-34.62,94.14C575.69,372.9,587.25,404.11,599.13,436.16ZM572.19,202.29c.41-1.44,1.18-3.56,1.64-5.74,6.22-29.36,9.68-59,8.39-89.05-.79-18.61-3.14-36.85-12.21-53.56-6.4-11.81-16-19.23-29.77-18.06-10.57.89-21.43,2.37-31.39,5.83C479.09,52.05,453.78,70.14,429.7,90c-7.13,5.89-14,12.14-20.28,17.64l64.46,77.75Zm-403.28,46a36.89,36.89,0,0,0-5.32.9c-28.75,9.32-56.59,20.76-82.14,37.1-15.84,10.13-30.78,21.44-40.81,37.89-7.22,11.81-7.4,23.8,0,35.53a88.58,88.58,0,0,0,10.46,13.48c19.08,20.08,42.8,33.33,67.74,44.39,16.37,7.26,33.33,13.17,49,19.28,12-31.29,23.53-61.25,34.74-91.35.95-2.57,0-6.28-1-9.07-5.79-15.12-12.16-30-17.81-45.19C178.52,277.16,173.93,262.86,168.91,248.26Zm189,328L293.33,498.5l-98.14-16.71a19.31,19.31,0,0,0-1.28,3.53c-4.85,24.65-8.94,49.37-9,74.62-.06,21.11.74,42.07,8.58,62,8.83,22.45,23.46,30,47.21,25.36,18.91-3.72,36-11.77,52.32-21.51C316.66,611.73,338,594.6,357.88,576.22Zm51.83.14c1.45,1.11,3.45,2.59,5.39,4.15,12.09,9.74,23.77,20,36.34,29.13,22.29,16.14,45.79,30.21,73.1,36.39,27.85,6.29,43.78-2.22,51.62-29.57,3.91-13.68,6.58-28.2,6.71-42.37.19-20.68-2-41.42-4-62.06-1-10.51-3.91-20.85-5.83-30.65l-98.83,17ZM358,108c-1.95-1.59-3.7-3-5.46-4.45C340.3,93.69,328.45,83.22,315.7,74c-22.11-16-45.39-29.91-72.46-36.11-27.88-6.39-43.86,1.86-51.87,29.15-4.06,13.85-7,28.65-6.86,43,.21,23.4,3.1,46.8,5.38,70.15.76,7.76,3.14,15.36,4.6,22.21l99.64-17.13c9.52-12.05,19.61-25.32,30.21-38.16S346.06,121.86,358,108Zm26,443.17c14.6-17,28.23-32.82,42.81-49.78H340.56Zm-.9-418.51-42.72,49.7h86Zm160.08,252L500.75,458.8l63.72-12.46C557.2,425.24,550.43,405.62,543.21,384.67ZM265,227.53l-.75-1.9-61.58,11.94,21.36,61.55Zm1.63,231.29L224,385.45l-20.79,61ZM564,237.49l-63.36-12.28,42.48,73.3C550.36,277.46,557,258.17,564,237.49Z"/><path class="cls-2" d="M383.14,413.42c-39.88-.1-71.54-32.11-71.4-72.18.14-38.92,32.35-70.83,71.49-70.82,40.07,0,72.26,31.94,72.18,71.58C455.33,381.82,423.24,413.53,383.14,413.42Z"/></g></g></svg>