<svg xmlns="http://www.w3.org/2000/svg" viewBox="0 0 199.16 240.07"><defs><style>.cls-1{fill:#fe4002;}.cls-2{fill:#fff;}</style></defs><g id="Layer_2" data-name="Layer 2"><g id="Layer_2-2" data-name="Layer 2"><path class="cls-1" d="M190.42,103.83a64.11,64.11,0,0,0,7.1-46.78C186.68,8,129.74-15.63,87.32,11.28q-27,17.12-53.8,34.47C5.09,64.05-4.89,98.09,8.86,129a8.63,8.63,0,0,1-.4,6.66C2.89,145.8.14,156.6,0,171.54c1,24,13.26,44.86,36.94,58.24,24,13.55,48.72,14,72.64-.3,19.28-11.52,38.09-23.85,56.88-36.15,27.54-18,37.27-52.17,23.59-82.2A7,7,0,0,1,190.42,103.83ZM169,83a13.51,13.51,0,0,1-.87,1.83L141.58,71.34a33.79,33.79,0,0,0-.81-6.17c-2.59-8.6-12.42-11.55-20.87-6.19Q93.56,75.71,67.36,92.66c-7.06,4.55-8.93,11.06-5.13,17.37s12,8.17,18.82,4c6.68-4.05,13.19-8.4,19.8-12.58,26.27-16.6,60.64-2,66.52,28.42,3.12,16.22-2,30-15.71,39.28-19.3,13-39,25.45-58.9,37.59-15.1,9.23-34.68,7.14-48.57-4.22-14.72-12-19.59-29.2-13.66-47.88l26.52,13.56c0,5.13,1.46,10.58,7.34,13.73,4.92,2.64,9.59,2,14.14-.95,17.8-11.39,35.65-22.72,53.4-34.17,6.62-4.27,8.3-11.15,4.52-17.2a13.17,13.17,0,0,0-18-4.31c-7,4.13-13.74,8.78-20.66,13.08a44,44,0,0,1-66.19-27.5c-3.51-15.38,2.32-31.68,15.5-40.41,19.56-13,39.33-25.61,59.36-37.8,14.89-9.06,34.5-6.93,48.17,4.17C168.88,48.42,174.44,66.28,169,83Z"/><path class="cls-2" d="M62.23,110c3.82,6.32,12,8.17,18.82,4,6.68-4.05,13.19-8.4,19.8-12.58,26.27-16.6,60.64-2,66.52,28.42,3.12,16.22-2,30-15.71,39.28-19.3,13-39,25.45-58.9,37.59-15.1,9.23-34.68,7.14-48.57-4.22-14.72-12-19.59-29.2-13.66-47.88l26.52,13.56c0,5.13,1.46,10.58,7.34,13.73,4.92,2.64,9.59,2,14.14-.95,17.8-11.39,35.65-22.72,53.4-34.17,6.62-4.27,8.3-11.15,4.52-17.2a13.17,13.17,0,0,0-18-4.31c-7,4.13-13.74,8.78-20.66,13.08a44,44,0,0,1-66.19-27.5c-3.51-15.38,2.32-31.68,15.5-40.41,19.56-13,39.33-25.61,59.36-37.8,14.89-9.06,34.5-6.93,48.17,4.17C168.88,48.42,174.44,66.28,169,83a13.51,13.51,0,0,1-.87,1.83L141.58,71.34a33.79,33.79,0,0,0-.81-6.17c-2.59-8.6-12.42-11.55-20.87-6.19Q93.56,75.71,67.36,92.66C60.3,97.21,58.43,103.72,62.23,110Z"/></g></g></svg>