<?xml version="1.0" encoding="utf-8"?>
<!-- Generator: Adobe Illustrator 25.1.0, SVG Export Plug-In . SVG Version: 6.00 Build 0)  -->
<svg version="1.1" id="Layer_1" xmlns="http://www.w3.org/2000/svg" xmlns:xlink="http://www.w3.org/1999/xlink" x="0px" y="0px"
	 viewBox="0 0 504.5 503.8" style="enable-background:new 0 0 504.5 503.8;" xml:space="preserve">
<style type="text/css">
	.st0{fill:#414042;stroke:#231F20;stroke-width:0.88;stroke-miterlimit:10;}
	.st1{fill:#242226;}
	.st2{fill:#040C29;}
	.st3{fill:#D79788;}
	.st4{fill:#B37667;}
	.st5{fill:#BD7E73;}
	.st6{fill:#CE8F84;}
	.st7{fill:#BA7671;}
	.st8{fill:#C18670;}
	.st9{opacity:0.63;fill:#C88679;}
	.st10{opacity:0.57;fill:#975852;}
	.st11{fill:#110A0C;}
	.st12{fill:#C7857B;}
	.st13{fill:#A8A5AB;}
	.st14{fill:#3D0E0D;}
	.st15{fill:#BA5C5E;}
	.st16{fill:#C96C6C;}
	.st17{opacity:0.41;fill:#6E3733;}
	.st18{fill:#451B1D;}
	.st19{opacity:0.41;fill:#633634;}
	.st20{fill:#4A1B1B;}
	.st21{fill:#310100;}
	.st22{fill:#290804;}
	.st23{fill:#5A1011;}
	.st24{fill:#BE7D70;}
	.st25{fill:#290811;}
	.st26{fill:url(#SVGID_1_);}
	.st27{fill:url(#SVGID_2_);}
	.st28{fill:url(#SVGID_3_);}
	.st29{opacity:0.56;fill:#995852;}
	.st30{opacity:0.45;fill:#995852;}
	.st31{opacity:0.71;fill:#C68982;}
	.st32{opacity:0.4;fill:#93554F;}
	.st33{opacity:0.43;fill:#763132;}
	.st34{opacity:0.54;fill:#904642;}
	.st35{opacity:0.54;fill:#974B44;}
	.st36{opacity:0.51;fill:#793D36;}
	.st37{opacity:0.29;fill:#793D36;}
	.st38{opacity:0.32;fill:#793D36;}
	.st39{fill:#D8998E;}
	.st40{opacity:0.29;fill:#995852;}
	.st41{opacity:0.18;fill:#995852;}
</style>
<g id="Layer_2_1_">
	<g id="Layer_1-2">
		<path class="st0" d="M497.6,393.7l-27.9,8.1L120.2,503c-4.3,1.3-8.8-1.2-10-5.5c0,0,0,0,0,0l-18.3-63.2L0.9,120.1
			c-1.3-4.3,1.2-8.8,5.5-10c0,0,0,0,0,0L383.8,0.8c4.3-1.2,8.8,1.2,10,5.5l109.3,377.3C504.4,387.9,501.9,392.4,497.6,393.7
			C497.6,393.7,497.6,393.7,497.6,393.7z"/>
		<path class="st1" d="M249.6,359.7c0.5,0.4-6.2,0.8-16-4.1c-1.9-1.1-3.3-3-3.7-5.2c-0.2-3.2-0.7-12.1-0.7-12.1
			C230.2,338.4,244.7,355.1,249.6,359.7z"/>
		<path class="st2" d="M470,401.7L120.6,502.9c-4.3,1.3-8.8-1.2-10-5.5c0,0,0,0,0,0l-18.3-63.2c9.5-4.1,16.5-6.6,17-6.3
			c6.8,4.3,3.6,7.2,7.2,7c1.8-0.1,5.9-5.6,11.8-6.6c9.3-1.7,32.2-10.8,34.3-11.1c9.7-1.2,11.7-1.5,16.2-4.1c5.3-3,5.2-5.1,13.1-13.2
			c1.4-1.4,15-11.7,27.6-17.3c0.8-0.2,1.7-0.4,2.6-0.5c1.5-2.8,0.7-3.1,0.9-6.7c0.5-9.7-0.3-22.9,3.7-27.3c0.8-0.7,2.1-0.8,3-0.2
			c0.1,0,0.1,0.1,0.1,0.2c0,0.3,0.1,0.7,0.2,1c0.1,0.3,0.2,0.7,0.4,1c0,0.1,0.1,0.2,0.2,0.3c2.3,3.4,9,5.5,18.4,6.8l0.4,0.1
			c7.2,0.9,14.5,1.4,21.7,1.5c25.8,0.6,57.6-1.6,76-3.1c6-0.5,10.6-0.9,13.1-1c0.7,0,1.2-0.1,1.6-0.1c0.6,0,2.4-0.1,3.3,0.9
			c0.7,0.8-0.9,7.8,0.1,9.1c0.9,1.1,6.9-1.4,7.9-0.2c0.7,0.8,0.6,4.7,2.2,5.4c1.1,0.1,2.3,0.1,3.4-0.1c1.1-0.1,7.2,3.1,8.5,3.9
			C388,373.9,457.7,380.4,470,401.7z"/>
		<path class="st3" d="M386.4,220.5c-1.2,24.3,2.3,71.2-13,106.1c-5.1,11.6-8.1,21.8-34.5,36c-15.6,8.4-30.8,7.9-43.4,5.7
			c-11.7-2-38.7-10.5-47-17.1c-4.7-3.7-26.1-26.3-28.7-32.6c-3-7.4-5.1-15-6.2-22.9l0,0l0,0c-0.1-1.8-0.5-4.3-0.8-7
			c0-0.1,0-0.1,0-0.2c-0.4-4.6-0.4-9.2-0.2-13.9c1-20.5,1-32.3,3-47.2c1.7-12.4,5.6-17.9,7-24.5c3.2-14.9,9.4-13.4,8.9-15.7
			c-3.2-14.8-1.9-24.2,2.8-38.1c3.1-9.3,31-30.3,56.3-35.5c2.6-0.5,6.3,1.2,10.2,2.1c4.6,1.1,12.4-2,18.3-4.1
			c9.6-3.4,12.4,0.9,18.8,5.1c4.9,3,9.9,5.7,15.1,8c14.9,7.1,24,16.2,28.9,38.6c3.5,15.9,3.5,20.3,2.4,26.5
			C382.9,197.8,386.8,213.4,386.4,220.5z"/>
		<path class="st4" d="M214,246.9c0.3,4.9,0.3,8.2,0.2,11.6c-2.2-3.2-4.9-6.6-7.4-10.1c-3.1-4.3-6-8.7-7.5-12.6
			C200.2,230.9,213.5,239.1,214,246.9z"/>
		<path class="st5" d="M214.1,258.5c-0.2,6.5-0.9,13.1-1.2,30.5c0,0.8,0,1.6,0,2.3c-1.6-2.3-5.8-6.7-7.2-11.5
			c-1.3-4.4-2-8.9-1.9-13.5c0-4.5,1.3-10.4,2.9-17.9C209.3,251.9,211.9,255.3,214.1,258.5z"/>
		<path class="st6" d="M214.2,303.5L214.2,303.5L214.2,303.5c0.1,1.6-0.1,2.7-0.8,3c-1.2,0.5-3.6-1.5-4.8-3.7
			c-1.4-2.7-0.6-5.5-0.6-6.2c-0.4-6.7-7-18.9-9.6-33.8c-1.4-9-1.1-18.1,0.8-27c1.5,3.9,4.4,8.2,7.5,12.6c-1.6,7.5-2.9,13.4-2.9,17.9
			c-0.1,4.6,0.6,9.1,1.9,13.5c1.4,4.7,5.5,9.2,7.2,11.5l0,0c0.1,1.7,0.2,3.4,0.4,4.9c0,0.1,0,0.1,0,0.2
			C213.6,298.9,213.9,301.2,214.2,303.5z"/>
		<path class="st7" d="M400.2,262.6c-0.2,2.5-1.8,2.7-2.9,5.3c-2.6,6.8-0.4,10.9-5.3,19.4c-3.5,6-7.4,11.2-9.9,14.4
			c-0.9,1.1,1.6-5.3,3.8-27.3c1.2-1.5,2-2.8,3-4.2c1.2-1.7,2.3-1.1,4.5-3.1c1.8-1.8,2.1-3.4,4.3-4.3
			C398.6,262.8,399.4,262.6,400.2,262.6z"/>
		<path class="st8" d="M400.2,261.6c0,0.3,0.1,0.7,0.1,1c-0.8,0.1-1.7,0.2-2.5,0.4c-2.2,0.9-2.5,2.5-4.3,4.3c-2.1,2-3.2,1.4-4.5,3.1
			c-1,1.4-1.8,2.7-3,4.2c0.2-1.3,0.3-2.6,0.2-3.9c-0.3-4.5,0.6-11,3.7-12.4c1.2-0.5,2.5-0.8,3.8-0.9
			C396.7,257.4,400.1,259.2,400.2,261.6z"/>
		<path class="st9" d="M215.9,283.7c1.5,1.1,28.2,18.7,29.6,19.9c-2-3.4-11.1-23-11.6-29.3c-1.2-14.1-1.4-19.4-1-31.8
			c0.3-9-0.6-8.6,2-21.2c1.4-6.9,0.7-9.1,2.4-14.6c3.2-10.2,9.7-10.3,11.2-17.4c1.7-8.2-5.3-12-5.6-19.3
			c-0.4-11.7,15.2-20.1,29.2-28c11.2-6.3,17.9-10.1,27-9.3c7,0.6,9.4,3.5,19.7,4.2c9.6,0.7,9.9-2.3,16.9-1.3
			c8.6,1.3,14.9,4.6,23.5,11.1c5,3.7,8.8,7,12.2,11.6c4.7,6.5,7.5,13.1,8,15.4c1.1,4.9,2.2,9.6,2,13.1c-0.1,3.8-1.1,7.6-1.5,9.9
			c1.4,7.2,1.1,11.7,3,14.8c1,1.7,2.1,3.5,2.5,3.3c0.9-0.3-0.1-10.4-0.6-20.8c-0.6-13.4-0.2-15.4-3.7-23.4
			c-14.4-32-27-41.7-46.2-41.4c-4.5,0.1-7.4,1.3-15.5,1c-10.8-0.5-17.8-3.3-21.7-4.3c-9.9-2.4-51.4,20.5-58.8,30.5
			c-7.9,10.7,3,28.7,1.7,31.4c-4.8,9.7-9.6,16.8-14.1,27.4c-2.3,5.5-3.9,9.1-5.2,14.5c-3,11.7-1.5,17.5-2.6,33
			C218.4,267.4,217.4,274.9,215.9,283.7z"/>
		<path class="st10" d="M213.1,281.9c5.1,3.9,3.1,2.5,4.1,3.2c0.4-0.1,3.5-15.8,3.6-26.2c0-2,0-14.4,2.3-20
			c4.8-11.7,5.2-13.9,8.1-24.7c5.5-20.4,8.3-18.9,13.9-26.3c0.8-1.1-3.4-6.4-6.5-17.1c-0.4-6.7,4.7-16,12.4-21.4
			c13.2-9.3,31.7-17.4,45.4-20.4c5.3-1.2,21.6,2.2,24.6,2.3c4.9,0.1,10.1-1.1,14-2.1c5.6-1.5,22.2,9.9,26.3,13.2
			c24.2,19.7,24.1,51.9,21.6,57.9c2.6,8,0.9,14.4,2.7,14.2c2.2-0.2,2.1-15,1.4-26c-0.5-7.5-3.1-47-33.7-66.2
			c-20.2-12.6-41.6-9.6-59.1-7.2c-16,2.2-41.6,5.8-58.4,25.3c-7.1,8.3-12,18.7-17.3,74.4C215.8,242.1,213.2,265,213.1,281.9z"/>
		<path class="st11" d="M420.6,179.3c-2,13.4-1.3,28.8-7.2,45.3c0,0-14.8,32-19.5,32.6c-0.8,0.1-2.9-0.3-4.3,1.2
			c-1.9,2.1-3.5,11.6-3.5,11.6s0.4-21.4,0.6-46.1c0-3.9-2.4-11.4-2.2-21.4c0.1-7,1.3-10.1,1.1-14c-1.1-19.3-13.1-45-28.2-53.4
			c-2.5-1.6-5.2-3-7.9-4.2c-17.7-8.6-17.2-8.6-23.7-9c-8.8-0.5-10.4,2.7-21.4,2.3c-5.7-0.2-8.8-2.7-12-2.5
			c-18.1,0.7-53.9,25.3-57.7,35.5c-5.8,15.4,3.4,30.6,2.4,32.6c-1.3,2.5-2.7,2.8-4.7,4.7c-0.9,0.9-1.7,1.8-2.5,2.8
			c-4.1,5.2-6.9,15.3-6.9,15.3c-5.6,18-5.6,17.5-6.5,24.1c-0.8,6.2-1.9,17.6-2.3,17.6c-0.5,0,0.3-8.4-1.6-11.9
			c-1.7-2.9-4.1-5.2-7-6.9c-1.5-1-3.3-1.5-5.1-1.3c-0.3,0-11.9-13.6-16.6-29.1c-1.9-6.1-2.9-36.7,3.9-49.8
			c14-26.9,17.1-35.2,20.2-36.8c3.4-1.7,4.3-3.7,6.6-4c-0.7-8.7,2.2-13.3,3.5-17.8c8.9-29.2,50.8-36.7,59.1-38.2
			c30-5.5,48.3,1,60.5,3.8c4.4,1,12.7,1.9,15.2,2.4c19.2,3.5,16.3-0.7,34.5,20.7c11.9,14,6.8,37.8-6.2,56
			C386.9,142.8,424.9,150.4,420.6,179.3z"/>
		<path class="st12" d="M290.1,230c-1.7,0.8-3.4,3.8-13.1,6.4c-7.3,2-11,3-14,2.9c-3.3-0.1-8.1-1.5-10.7-4.2
			c-1.5-1.4-2.8-2.9-3.9-4.6c-1.2-1.7-2.6-2.4-2.7-3.3c0-0.6,2.2-3.2,3.8-4.1c5.3-2.9,11.1-4.5,17.1-4.8c7.6,0.3,18.9,4.8,23.6,8.7
			C291.8,228.5,291.4,229.4,290.1,230z"/>
		<path class="st13" d="M289.7,227.8c0.5-1.6-12.6-6.7-20.5-7.6c-12.4-1.5-15.5,6.2-14.6,6.9c2.4,1.5,2.2,4.8,10.4,4.5
			c6.8-0.2,7.9-0.9,18.3-2.2C287.4,228.7,289.5,228.4,289.7,227.8z"/>
		<path class="st14" d="M259,221.9c0,2.5,1.3,8.1,3.5,9.6c3.8,0.1,7.6-0.2,10.8-0.7c2.1-2.1,2.5-6.7,1.5-9.5
			C265.1,218.8,262,220.9,259,221.9z"/>
		<path class="st13" d="M326.4,232.1c-2.7-0.1,8.8-5.2,14.4-5.6c13-0.9,22.8,10,24.2,12.7c1.4,2.7-12.4,1.6-19.2-0.7
			C341,236.8,334.6,232.5,326.4,232.1z"/>
		<path class="st14" d="M341.2,226.5c-1,0.9-2.3,7-1.2,9.5c4.8,2.3,5.9,2.5,11.8,3.9c3.5-0.9,3.2-5.9,3.1-9.5
			C350.5,226.7,343.1,226.2,341.2,226.5z"/>
		<path class="st15" d="M309.4,297.1c-1.3-0.1-5.2-4.1-6.5-4.2c-4-0.4-22.6,7.9-26.1,12.1c-0.5,0.6,0.7,0,1.8-0.6
			c3-1.5,5.6-1.8,9.9-2.8c4.8-1.1,9.7,2.2,11.1,2.2c2.9,0,5-0.1,5.7,0c0.8,0.2,7.3,2.3,7.9,2.4c1.2,0.1,7-1.4,8.7-1.1
			c4.5,0.8,14.6,8.2,14.4,7.8c-0.4-1.1-9-11.9-17.2-16.8C317.8,295.4,310.3,297.2,309.4,297.1z"/>
		<path class="st16" d="M277.5,304.7c-0.6,0.5,2.2,1.4,6.5,2.7c4.3,1.3,8.6,2.9,12.6,4.9c2.6,1.3,8,1.6,9.7,1.9
			c2.6,0.5,4.3,1,8.1,1.8c2.4,0.5,18-3.1,20.6-4.1c0.4-0.1-10.4-6.5-13.3-7.2c-1.7-0.4-7.4,1.4-8.7,1.1c-2.9-0.8-7.2-2.2-8.1-2.4
			c-2.6-0.5-2.7,0.4-5.5,0c-3.6-0.6-3.4-2.1-8.6-2.4C288.3,300.9,279.2,303.2,277.5,304.7z"/>
		<path class="st11" d="M379.4,311c-1.8,1.5-26.8,10.6-27.5,8.3c-0.4-1.4-0.1-10-0.7-14.7c-0.5-4-16.1-15.2-32.1-25.7
			c-2.3-1.5-7.6,4.2-9.3,4c-1.7-0.2-6.1-6.7-9.4-5.5c-45.9,16-32.9,6.8-44.2,30.6c-10.6-1.6-40.5-24.2-42.9-26.1l-0.1-0.1
			c-1.1,21.4,4.2,41.3,8.5,46.9c1.3,1.7,5.1,6.6,7.6,9.5c10.2,10.3,15.3,16.3,19.6,20.9l0.3,0.3l1.2,0.3c0.1,0.1,0.8,0.1,1,0.2
			c13,6.6,42.8,13.3,58.3,15c25.1,2.9,35.3,0.5,50.6-18c1.8-2.2,3.7-4.5,5.7-7.1c9.2-12,16.6-49.6,17.8-58.3
			C383.7,291.5,379.4,311,379.4,311z M268.8,313.5c0,0,2.8-9.6,5.1-12.7c3.1-4.1,28.2-12.1,30.2-11.1c2.3,1.2,5.5,3.5,6.3,3.6
			c1.4,0.2,5.8-0.5,8.4-1.2c1.1-0.3,18.4,12.3,20.1,18.2c0.6,2.2,0.6,30.7-2.3,33.3c-1.7,1.5-27.3-9.9-27.6-11.2
			c-0.4-1.8-0.3-10.1,5-12.1c2.9-1.1-22.4-5.6-20.8-4.2c3.7,3.1,2,14.5,0.1,14.6c-7.4,0.4-24.6,2.1-27.3-0.4
			C264.3,328.7,268.8,313.5,268.8,313.5z"/>
		<path class="st17" d="M259.1,202.4c-0.2,0.2,0.2,0.4,5.3,2.5c18.5,7.8,20.7,8,23,7.8c3-0.4,4.5,0.3,6.2,1.5
			c3.1,2.1,2.1,6.4,3.1,6.5c0.8,0.1,2.3-3.6,1.9-7.3c-0.4-2.8-0.3-3.7-2.3-6.4C292.6,202.1,261,200.3,259.1,202.4z"/>
		<path class="st18" d="M308.5,198.6c-0.3-2.1-11.6-5.7-13.5-5.9c-1.1-0.1-15.2,0.9-19.1,1.1c-4.8,0.2-7.2-1.1-13.4-0.8
			c-2.1,0.1-13.5,4.3-17.5,6.9c-2.2,1.7-3.7,4.2-4.3,7c0.8-1.4,2.8-2.7,5.2-4.1c4-2.3,15.2-1.6,17.9-0.1c0.9,0.5,11.3,0.9,21.6,2.8
			c3.7,0.7,6,0.6,9.2,1.9c4.1,1.7,7,3.1,7,3.1C309.1,205.1,309.4,204.8,308.5,198.6z"/>
		<path class="st19" d="M323.1,220.7c-2.7,7-1.7,9.8,0.7,12.5c1.8,0.2,4.4-6.9,7.9-9.6c1.4-1.1,3.4-1.9,5.8-2.5c3.8-1,5.7-1,9.7-1.2
			c8.8-0.4,8.8-2.4,14.7-1.8c1,0.1,5.1,0.5,10,2.7c4.4,2,6.7,6.4,7.2,4.3c0.2-1-0.3-3.2-6.8-5.7c-9.5-3.7-9.1-2.7-17.2-2.3
			c-5.3,0.3-9.8-1-13.3-1.8c-4.3-1-5.6-1.5-8.1-1.2C327.9,214.7,325.1,215.5,323.1,220.7z"/>
		<path class="st20" d="M379.9,223.8c0.1-1.1,0.5-3-0.6-4.7c-2.1-3.2-6.4-7.6-8.5-8.7c-2.5-1.4-9.2-2.1-10-2.3
			c-11.5-3.7-22.2-8.6-35.3-7.8c-1.6,0.1-3,1.4-5.2,7.6c-1.8,5,4.1,9.3,4.8,9.9c2.7-2.2,4.6-3.1,6.6-3.5c6.8-1.3,11,2.4,20.2,2.7
			c4.9,0.2,4.7-0.4,9.1-0.3C366.4,216.7,372.8,218.4,379.9,223.8z"/>
		<path class="st21" d="M313.8,276.9c2-3.2,4.7-6.3,6.4-7.2s3.4-1.9,4.5-1.1c0.9,0.7,0.9,2.3,0.2,3.3c-0.7,0.9-1.7,1.5-2.8,1.8
			c-0.6,0.2-3,0.7-3.8,0.4c-0.8-0.3-0.3-2.2-0.2-2.6L313.8,276.9z"/>
		<path class="st22" d="M306.7,277c-1.3-3.7-5.7-8.1-7.2-9.6c-2.2-2.2-4.2-3.3-6.2-2.9c-1.2,0.3-2.3,0.8-2.4,1.9
			c-0.2,1.8,2.3,3.3,4.1,3.8c2.1,0.6,6.3-0.3,7.2,0L306.7,277z"/>
		<path class="st23" d="M245.9,232c2.4-2.1,8.4-4.4,8.5-4.9c0.6-2.4,1.2-3.3,2.6-4.3c2.5-1.9,13.3-2.5,17.4-1.6
			c2.9,0.6,5.4,1.8,5.5,1.6c0.1-0.2-2.1-1.5-4.2-2.4c-3.9-1.6-8.1-2.2-12.3-1.7c-5.2,0.6-11.9,3.5-12.7,3.9c-1.5,0.7-5.1,3-5.1,3
			C246.4,227.6,245.4,232.4,245.9,232z"/>
		<path class="st24" d="M291.1,228.2c0.9,1.7-1.5-11.9-2.8-13.2c-7-7-30.8-8.4-36.5-5.6c-1.8,0.9-4.4,3.9-6.4,9.2
			c-0.9,2.4,0.4,8.1,0.4,8.1c0.3-0.9,2.3-2.9,4.6-4.1c4.4-2.3,9.2-3.7,14.2-4.2C278.2,217.8,291,228.1,291.1,228.2z"/>
		<path class="st24" d="M326.4,231.1c-0.2,1.4,5.3-3.5,13.2-4.8c2.1-0.4,11.4-0.4,18,3c4.4,2.3,8.1,5.6,10.9,9.6
			c0.8,1.3,1-5.3,0.5-7.5c-1-4.3-5.9-6.3-10.2-8.1c-4.7-2.1-9.8-3.1-14.9-3c-4.4,0.1-8,0.6-11.7,2.9
			C330.1,224.6,326.6,229.8,326.4,231.1z"/>
		<path class="st23" d="M369.5,243.6c-1.6-5.4,0.7-2.6-2.4-6.5c-5.1-6.6-13-10.6-21.3-10.6c-0.1,0,6.4,1.3,11.1,5.3
			c2.6,2.3,4,3.1,7,7.3C364.9,240.4,369.6,243.9,369.5,243.6z"/>
		<path class="st12" d="M326.9,232c0.4-0.3,5.6,0.4,7.5,1.2c0.3,0.1,8.9,4.6,12.6,5.5c6.6,1.8,14.2,2.6,16.7,0.7l3.9,3
			c-1.9,1.3-1.5,4.3-10,6.6c-1.6,0.4-4.7-1.1-13.5-3.8c-8.1-2.5-9.7-2.7-12.7-5.5C328.4,236.9,326.7,232.1,326.9,232z"/>
		
			<ellipse transform="matrix(0.9983 -5.760740e-02 5.760740e-02 0.9983 -12.4563 15.7637)" class="st25" cx="267.2" cy="223.9" rx="2.5" ry="2.5"/>
		
			<ellipse transform="matrix(0.9983 -5.760744e-02 5.760744e-02 0.9983 -12.7993 20.456)" class="st25" cx="348.4" cy="232.2" rx="2.5" ry="2.5"/>
		
			<linearGradient id="SVGID_1_" gradientUnits="userSpaceOnUse" x1="328.3181" y1="444.5877" x2="329.6375" y2="444.5877" gradientTransform="matrix(0.9809 -0.1868 0.1868 0.9809 -137.9766 -151.1646)">
			<stop  offset="0" style="stop-color:#FFFFFF"/>
			<stop  offset="1" style="stop-color:#231F20"/>
		</linearGradient>
		<path class="st26" d="M267.6,225.4c0.2,0.1,0.5-1.5,0.5-2c0-0.4-1.4-2-1.3-1.5c0,0.1-0.2,1.1-0.1,1.3s0.5,0.2,0.7,0.7
			C267.8,224.4,267.5,225.3,267.6,225.4z"/>
		
			<linearGradient id="SVGID_2_" gradientUnits="userSpaceOnUse" x1="346.6389" y1="432.5209" x2="348.0089" y2="432.5209" gradientTransform="matrix(0.9983 -5.760741e-02 5.760741e-02 0.9983 -22.3887 -179.9765)">
			<stop  offset="0" style="stop-color:#FFFFFF"/>
			<stop  offset="1" style="stop-color:#231F20"/>
		</linearGradient>
		<path class="st27" d="M349.2,233.5c0.2,0.1,0.9-1.2,0.8-1.8c-0.4-0.6-0.9-1.2-1.4-1.6c0.1,0.5,0.1,1,0.1,1.4
			c0,0.1,0.5,0.4,0.6,0.9C349.4,233,349.1,233.5,349.2,233.5z"/>
		
			<linearGradient id="SVGID_3_" gradientUnits="userSpaceOnUse" x1="349.9237" y1="1352.0671" x2="350.7337" y2="1352.0671" gradientTransform="matrix(0.9983 -5.760741e-02 -5.760741e-02 -0.9983 77.9733 1600.2683)">
			<stop  offset="0" style="stop-color:#FFFFFF"/>
			<stop  offset="1" style="stop-color:#231F20"/>
		</linearGradient>
		<path class="st28" d="M349.4,229.7c-0.1-0.2,0.7,0.1,0.8,0.2c0.1,0.3,0.1,0.7,0,1c-0.1,0-0.3-0.3-0.3-0.4
			c-0.1-0.2-0.2-0.3-0.4-0.4C349.4,230,349.4,229.7,349.4,229.7z"/>
		<path class="st29" d="M298.3,250.6c-0.6,0.4-2.1,1.2-2.4,1.4c-4.9,3.7-9.1,7.3-9.6,7.9c-1.4,1.6-6.2,9-1.8,12.7
			c0.8,0.7,1.8,1.4,4.2,2.4c5.2,2.4,8.4,2.8,7.6,3.1c-3.2,1.1-12.7,4.4-13,4.3c-3.7-1,12.2-3.2,2.1-7.1c-0.8-0.3-1.1-0.7-2-1.5
			c-1.2-1-2-4.5-1.7-6.5c0.7-5.8,1.9-7.2,4.5-10.6c4.3-5.8,6.2-5.4,6.6-9c0.4-3.6-0.6-9.4-0.4-13c0.1-1.5,5-12.5,5.7-16.6
			c0.2-1.3,0.9,6.4,0.7,8.8c-0.6,6.7-0.5,10.7-0.7,13.3c-0.1,0.9-0.1,1.8,0,3.4c0.1,1.2,0.2,1.8,0.4,2.6c0.4,1.7,0.4,2.2,0.4,2.2
			C298.9,250.3,298.9,250.2,298.3,250.6z"/>
		<path class="st30" d="M319.9,251.1c0,0.6,2.1,2.5,4,4.8l0.5,0.3c2.6,1.7,4.6,3.9,6.4,7.3c0.6,1.2,1.5,3.1,1.5,5.6
			c-0.1,3.4-2.3,6.8-5.3,8.4c-2.2,1.2-5.4,1.5-5,2.3c0.5,1.1,5,3.9,5,3.9c0.1-0.2,0.4-3.2,2.1-6.2c2-3.6,2.5-3.6,3.2-5.6
			c0.3-0.8,0.8-3.7-0.6-7.4c-2.2-5.8-5.5-8.1-7.4-12.7c-2.6-6.3-1.6-8.9-1.7-9.8c-0.1-0.6,0.3-1.8,1.3-2.3c0.7-0.4,1.9,0.2,2.7,0.7
			c1.2,0.7,6.9,10.2,7.8,9.5c-3.1-4.8-7.6-14.2-11-17c-4.2-4.1-0.6-11.2-0.6-11.2c0.9-3,0.2-4.9-0.3-5c-0.9-0.2-2.5,5.4-3.3,11.7
			c-0.7,6.1-1.1,11.5-0.9,13.5C318.4,243.2,319.8,248.9,319.9,251.1z"/>
		<path class="st31" d="M304,273.3c-2.1-3.2-2.4-3.6-3-3.7c-0.4,0-2.4,0.3-4.6,0.3c-4.1,0-5.4-3-5.7-2.7c-0.3,0.3,2.6,6,8.6,8.7
			c2.1,0.9,4.4,0.6,4.9-0.2C304.4,275.3,304.8,274.5,304,273.3z"/>
		<path class="st31" d="M317.4,271.5c0.3-0.2-0.3,1.6,0.2,2c1.2,0.8,5.5-0.5,6.7-1.7c0.3-0.4-1.4,2.7-4,3.9c-2.1,1-5.2,1.7-5.8,0.6
			C313.9,275.2,317.2,271.6,317.4,271.5z"/>
		<path class="st32" d="M386.2,274.7c0,0,2.3-3.5,3.7-5c0.3-0.3,2.1-0.8,3.3-1.9c1.5-1.3,1.8-2.2,3.1-3.6c0.9-0.9,2.1-1.1,3.1-1.2
			c0.5-0.1-1.5,2.7-2.6,4.3c-5.3,8.4-4.8,12.4-5.2,13.8c-0.8,3.2-2.4,7.1-9,18.2C385.1,287.2,386.2,274.7,386.2,274.7z"/>
		<path class="st33" d="M277.8,304.4c0,0,6.2-3.1,11.8-3.4c3.1-0.1,5.3,0.7,7.3,1.4c-1.4-3.4,2.2-7.2,5.3-9.2
			C293.7,294.4,279.4,302.5,277.8,304.4z"/>
		<path class="st34" d="M277.8,304.9c-0.4-0.5,8.8-3.7,13.6-3.6c2,0,3.6,0.8,4.7,1.3c-1.9,3,3.4,8.1,7.5,10.9
			c-1.6-0.2-3.9-0.4-5.8-1c-2.7-0.9-5-2.3-7.3-3.1C282.6,306.5,278.6,305.9,277.8,304.9z"/>
		<path class="st35" d="M295.7,303.7c0,0.5,1.7,1.5,3.2,1.5c2.7,0,4.9-0.2,5.3-0.2c2.7-0.2,7.2,2.2,9.2,2.5c2.2,0.4,6.7-1.4,8.3-1.2
			c2.5,0.4,13.1,5.8,12.9,5.5c-0.2-0.3-9.2-5.8-12.8-6.8c-1.8-0.5-6.3,1.2-8.5,1.1c-0.9,0-7.8-2.7-9.5-2.6c-1.1,0.1-3,0.4-4.6,0.1
			c-1.9-0.4-2.5-0.7-3-1C296,302.5,295.7,303.4,295.7,303.7z"/>
		<path class="st36" d="M379.3,310.6c-8.2,4.1-22.4,8.6-26.6,8.6c12.8-14.2,22.8-24,25.4-33.6c2.5-9.1,6.5-43.9,6.5-48.8
			c0-4,0.4-8.2,0.6-15.2c0.1-4.3,0.2-7,0.2-7c1,4.7,2,26.6,0.5,55.4C385,287.8,383.1,294.2,379.3,310.6z"/>
		<path class="st37" d="M379.4,311c-6.2,3.1-16.6,6.6-20,7.2c9.7-10.8,18.7-20.7,20.8-28c1.9-6.6,4.6-22.2,4.6-35.8
			c0-2,1.2-9,1.4-10.4c0.1-1.1,0.1-5.9,0.1-5.9c0.7,3.6,0.1,22.4-1.1,42.1C384.4,291,382.4,298.8,379.4,311z"/>
		<path class="st38" d="M379.3,311c-2.8,1.4-7.2,3.4-8.7,3.7c4.3-4.8,7.7-7.6,8.9-10.7c1-2.7,1.9-8.4,3.6-16.8
			c0.2-0.9,0.8-4,0.9-4.6c0.1-0.5,1.8-14,1.8-14c0.3,1.6-2.2,20.9-3.6,29.6C381.7,301.5,380.6,305.6,379.3,311z"/>
		<path class="st39" d="M274,193.8c-3.3,0.1-6.1-1-11.8-0.8c-2.2,0.1-16,5.6-17.5,7c-0.1,0.1-2.2,2.2-2.6,3c-1.5,2.7-4.8,6.8-5.9,8
			c0.1-1.1,1-5,2.3-8c2.6-5.6,7-7.6,8.4-10.6c4.4-8.8-2.1-13.9-4.3-21.1c-5-16.1,42.8-38.5,51.4-39.1c10.4-0.7,14.1,3.9,24.4,4.4
			c0,0-24.7,8.1-30.7,24c-3,7.9-2.4,22.1-3.8,25.1c-1.6,3.4-3,7.6-3,7.6"/>
		<path class="st39" d="M245.7,303.5c0.5,0.9,7.9,4.3,10.5,4.6c0.7,0.1,5-15.4,8.6-17.8c3.1-2.1,9.2-4.3,17.8-6.8
			c-4-0.1-17.1-0.8-29.4-9.2c-18.8-12.9-17.1-44.2-19.9-43.4c-0.8,0.2-0.8,38.5,0.8,44.5C236.7,285.2,240.3,294.7,245.7,303.5z"/>
		<path class="st40" d="M334,250c-1-0.3-6.5-9-7.7-9.6c-1-0.4-1.7-0.9-2.5-0.7c-1.2,0.4-1.4,1.8-1.4,2.2c-0.9,8.2,4.2,14.3,5.3,15.8
			c0.9-0.4-6-8.9-3.6-16.2C325.4,237.4,333.1,250.6,334,250z"/>
		<path class="st41" d="M333.5,248.6c-0.9,0.3-2.7,0.6-4.2,2.2c-2,2.2-1.6,4.7-2.1,4.7c-1.5-3.3-5.9-10.8-3.1-16.1
			C326.1,237.9,332.2,248.6,333.5,248.6z"/>
	</g>
</g>
<image style="display:none;overflow:visible;" width="3264" height="1472" xlink:href="../../20210110_235411.jpg"  transform="matrix(2.706575e-09 0.227 -0.227 2.706575e-09 268.1811 -2.022)">
</image>
</svg>
