<svg xmlns="http://www.w3.org/2000/svg" viewBox="0 0 139.57 125.49"><defs><style>.cls-1,.cls-10{fill:#b3b3b3;}.cls-2{fill:#333;}.cls-3{fill:#fff;}.cls-4{fill:#8c00ff;}.cls-5{fill:#6200ad;}.cls-6{fill:#232323;}.cls-7{fill:#f04;}.cls-8{fill:#1a1a1a;}.cls-14,.cls-9{fill:#d1a300;}.cls-10{opacity:0.58;}.cls-11,.cls-12,.cls-13{fill:none;stroke-width:0.5px;}.cls-11,.cls-12,.cls-13,.cls-14{stroke:#000;stroke-miterlimit:10;}.cls-12{stroke-dasharray:0.59 1.76 0.29 0.59;}.cls-13{stroke-dasharray:1.76 0.29 0.59 1.76 0.29 0.59;}.cls-14{stroke-width:0.22px;}</style></defs><g id="Layer_2" data-name="Layer 2"><g id="Layer_1-2" data-name="Layer 1"><path class="cls-1" d="M54.55,68.59c-.27.56-1.94,4.62-2.63,4.36-1.77-.68-6.5-9.68-5.14-9.55a4.36,4.36,0,0,1,.81.17,18,18,0,0,1,6.35,3.64C54.46,67.75,54.72,68.23,54.55,68.59Z"/><polygon class="cls-2" points="23.54 116.72 5.14 107.86 5.28 106.8 24.95 113.13 23.54 116.72"/><path class="cls-3" d="M60,93.71c.17,10-5.61,21.33-16.17,25.87-1.24.53-13.4,5.57-19.93-.52S20.58,99.9,26,92.44c7.63-10.58,23.89-15.7,30.52-10C59.8,85.36,59.88,90.22,60,93.71Z"/><path class="cls-1" d="M80.75,74.08c.58.75-1.38,3.25-2.85,4.55-4.15,3.7-13.89,6.92-14.25,5.74C63.09,82.54,79.49,72.45,80.75,74.08Z"/><path class="cls-3" d="M80.48,74.31C67.94,79.8,65.77,88,57.58,85.08c-4.5-1.61-7.12-6.7-7-12.61.08-4.07,4.92-7.42,8.72-8.54a6.41,6.41,0,0,1,4.19.15h0c1.57.56,3,1.54,4.7,2h.06a4.49,4.49,0,0,0,1.31.21h.11a8.17,8.17,0,0,0,3.2-.52c1.84-.65,5.28-1,6.41-.47C81.25,66.2,83.64,72.93,80.48,74.31Z"/><path class="cls-4" d="M46.51,75.62a10,10,0,0,0-2,1.29,3.72,3.72,0,0,0-1.68,2.43,2.1,2.1,0,0,0,.3,1.19c1.48,2.23,8.2-.08,13.46,7.92,4,6.13,8.2,21.21,9.06,21.2,1,0-.06-12.45-.5-22.5C64.92,82.87,50.79,72.64,46.51,75.62Z"/><path class="cls-5" d="M60.82,87.19c-1.61-3.43-5.81-8.08-16.1-10.48-2,1.51-2,2.31-1.88,3.21.37,3.1,8.57,0,14.11,9.17,3.29,5.42,7.55,20.56,8.66,20.56h0A107.76,107.76,0,0,0,63.8,98.42C61.49,87.68,61.25,88.11,60.82,87.19Z"/><path class="cls-6" d="M42.06,112.37c6.4,1.58,10.6,3,11.4,3.23,1.79.58,3,2.92,2.27,5.74a5.26,5.26,0,0,1-4.59,4.15c-1.52.07-4.14-.86-12-2.83l-3.49-.89-3.91-1a40,40,0,0,1,.84-4.9,44.15,44.15,0,0,1,1.55-5.45C37.41,111.36,40.15,111.9,42.06,112.37Z"/><ellipse class="cls-1" cx="52.27" cy="100.18" rx="6.71" ry="8.59" transform="translate(-22.8 15.72) rotate(-14.08)"/><ellipse class="cls-1" cx="34.07" cy="115.85" rx="6.71" ry="8.59" transform="translate(-86.64 112.56) rotate(-72.05)"/><path class="cls-6" d="M60,105.69c.48,4.92.72,11.33-2.43,13.78-2.74,2.13-6.93-4.5-8-11.27s-1.07-13.66,4-13.25C56.48,95.19,59.34,98.87,60,105.69Z"/><path class="cls-1" d="M55.05,67.52c-.27.56-1.94,4.63-2.63,4.36-1.77-.68-6.51-9.68-5.14-9.55a4.12,4.12,0,0,1,.8.17,18.07,18.07,0,0,1,6.36,3.64C55,66.68,55.22,67.16,55.05,67.52Z"/><path class="cls-2" d="M54.05,67.19c-1.19-.09-7-4.45-6-4.67l.08,0a17.06,17.06,0,0,1,6.57,3.88C54.55,66.74,54.35,67.21,54.05,67.19Z"/><path class="cls-2" d="M70.21,70.24c-1.52.88-5.41-.38-7.24-1.17s-.52-5.51.73-5.21h0c.94.24,3.26,1.52,4.7,2l.06,0a4.78,4.78,0,0,0,1.31.2h.11a10.24,10.24,0,0,0,3.2-.52C73.58,66.29,72.22,69.09,70.21,70.24Z"/><circle class="cls-7" cx="2.98" cy="105.78" r="2.98"/><ellipse class="cls-8" cx="66.29" cy="66.53" rx="0.85" ry="1.54" transform="translate(-21.08 100.97) rotate(-66.62)"/><ellipse class="cls-3" cx="66.87" cy="66.25" rx="0.12" ry="0.17" transform="translate(-23.94 91.04) rotate(-60)"/><ellipse class="cls-3" cx="67.04" cy="66.71" rx="0.17" ry="0.23" transform="translate(-24.26 91.41) rotate(-60)"/><ellipse class="cls-3" cx="66.24" cy="66.38" rx="0.26" ry="0.35" transform="translate(-24.36 90.56) rotate(-60)"/><ellipse class="cls-3" cx="66.49" cy="65.84" rx="0.08" ry="0.11" transform="translate(-23.77 90.5) rotate(-60)"/><path class="cls-2" d="M77.26,65c-.53.35.09,1.63.4,1.78A5,5,0,0,0,79,66.6c.41,0,1.81.44,1.74.18a2.69,2.69,0,0,0-1.31-1.63A4.49,4.49,0,0,0,77.26,65Z"/><polygon class="cls-2" points="82 65.88 81.18 65.43 81.36 65.19 82 65.88 82 65.88"/><path class="cls-9" d="M81.4,65.35a.86.86,0,0,1-.84.32,1.6,1.6,0,0,1-.51-.13h0l-.11-.07h0a.41.41,0,0,1-.11-.07,1.08,1.08,0,0,1-.2-.16,1.23,1.23,0,0,1-.25-.26.18.18,0,0,0,0-.07,1.4,1.4,0,0,1-.09-.17,1.25,1.25,0,0,1-.1-.29.81.81,0,0,1,.11-.53.73.73,0,0,1,.44-.3,1.39,1.39,0,0,1,.3,0l.19,0h.08a1.63,1.63,0,0,1,.4.15,1,1,0,0,1,.17.1.1.1,0,0,1,0,0,.78.78,0,0,1,.2.16.75.75,0,0,1,.15.16,1.06,1.06,0,0,1,.17.26A.83.83,0,0,1,81.4,65.35Z"/><path class="cls-2" d="M79.67,63.62a.73.73,0,0,0-.44.3.81.81,0,0,0-.11.53,1.13,1.13,0,0,0,.27-.13.7.7,0,0,0,.2-.22,1.46,1.46,0,0,0,.07-.19A.93.93,0,0,0,79.67,63.62Z"/><path class="cls-2" d="M80.31,63.85a.68.68,0,0,0-.07-.23v0l0,0h0l-.19,0,0,.07,0,.08a.61.61,0,0,1,0,.18.7.7,0,0,1,0,.32l0,.05a.71.71,0,0,1-.5.45.5.5,0,0,1-.27,0h-.09a1.4,1.4,0,0,0,.09.17.18.18,0,0,1,0,.07,1,1,0,0,0,.24,0,.94.94,0,0,0,.69-.62v0A.86.86,0,0,0,80.31,63.85Z"/><path class="cls-2" d="M81.38,64.49a.84.84,0,0,1,0,.52.89.89,0,0,1-.82.66.86.86,0,0,0,.84-.32A.83.83,0,0,0,81.38,64.49Z"/><path class="cls-2" d="M81.08,64.26a1.11,1.11,0,0,0,0-.19.78.78,0,0,0-.2-.16.1.1,0,0,0,0,0,1,1,0,0,0-.17-.1l0,.08a.93.93,0,0,1,.1.46.78.78,0,0,1,0,.26,1,1,0,0,1-1,.69l-.12,0a1.08,1.08,0,0,0,.2.16.41.41,0,0,0,.11.07h0l.11.07h0a1.26,1.26,0,0,0,1-.89A1.31,1.31,0,0,0,81.08,64.26Z"/><path class="cls-10" d="M81.5,64.07l-.19.06-.13,0-.28.06a3.12,3.12,0,0,1-.51,0,.65.65,0,0,1-.21,0A.26.26,0,0,1,80,64c0-.11,0-.25.17-.38a.64.64,0,0,1,.15-.13h0a1,1,0,0,1,.15-.11,1.83,1.83,0,0,1,.28-.14,3.17,3.17,0,0,1,.41-.17c.75-.25,1.42-.23,1.51,0S82.24,63.83,81.5,64.07Z"/><ellipse class="cls-9" cx="78.83" cy="63.73" rx="0.62" ry="0.54"/><path class="cls-11" d="M82.9,66.25l.55.68"/><path class="cls-12" d="M83.64,67.15a18.36,18.36,0,0,0,2.12,2"/><path class="cls-13" d="M86,69.38c1.62,1.26,3.7,2.26,5.81,1.67,5.07-1.41,1.77-18.89,6.44-21.84,4.13-2.6,9,8.27,14.05,6.57,4-1.37,5.9-10,6.74-20.36"/><path class="cls-11" d="M119.05,35.13c0-.29,0-.59.07-.88"/><polygon class="cls-14" points="107.81 21.57 103.51 21.57 101.36 25.3 103.51 29.03 107.81 29.03 109.96 25.3 107.81 21.57"/><polygon class="cls-14" points="115 25.57 110.7 25.57 108.55 29.3 110.7 33.03 115 33.03 117.16 29.3 115 25.57"/><polygon class="cls-14" points="115 17.19 110.7 17.19 108.55 20.91 110.7 24.64 115 24.64 117.16 20.91 115 17.19"/><polygon class="cls-14" points="122.21 21.34 117.91 21.34 115.51 25.17 117.66 28.9 121.97 28.9 124.12 25.17 122.21 21.34"/><polygon class="cls-14" points="122.23 13.05 117.92 13.05 115.77 16.78 117.92 20.51 122.23 20.51 124.38 16.78 122.23 13.05"/><polygon class="cls-14" points="107.57 13.05 103.26 13.05 101.11 16.78 103.26 20.51 107.57 20.51 109.72 16.78 107.57 13.05"/><polygon class="cls-14" points="107.81 4.54 103.51 4.54 101.36 8.26 103.51 11.99 107.81 11.99 109.96 8.26 107.81 4.54"/><polygon class="cls-14" points="122.23 4.54 117.92 4.54 115.77 8.26 117.92 11.99 122.23 11.99 124.38 8.26 122.23 4.54"/><polygon class="cls-14" points="100.37 0.11 96.07 0.11 93.92 3.84 96.07 7.57 100.37 7.57 102.53 3.84 100.37 0.11"/><polygon class="cls-14" points="115 0.11 110.7 0.11 108.55 3.84 110.7 7.57 115 7.57 117.16 3.84 115 0.11"/><polygon class="cls-14" points="129.54 0.11 125.24 0.11 123.08 3.84 125.24 7.57 129.54 7.57 131.69 3.84 129.54 0.11"/><polygon class="cls-14" points="137.29 13.05 132.99 13.05 130.83 16.78 132.99 20.51 137.29 20.51 139.44 16.78 137.29 13.05"/><polygon class="cls-14" points="129.54 25.57 125.24 25.57 123.08 29.3 125.24 33.03 129.54 33.03 131.69 29.3 129.54 25.57"/><polygon class="cls-14" points="100.37 25.57 96.07 25.57 93.92 29.3 96.07 33.03 100.37 33.03 102.53 29.3 100.37 25.57"/><polygon class="cls-14" points="93.31 13.05 89 13.05 86.85 16.78 89 20.51 93.31 20.51 95.46 16.78 93.31 13.05"/><polygon class="cls-14" points="100.47 17.19 96.17 17.19 94.01 20.91 96.17 24.64 100.47 24.64 102.62 20.91 100.47 17.19"/><polygon class="cls-14" points="115 8.8 110.7 8.8 108.55 12.53 110.7 16.26 115 16.26 117.16 12.53 115 8.8"/><polygon class="cls-14" points="129.54 8.8 125.24 8.8 123.08 12.53 125.24 16.26 129.54 16.26 131.69 12.53 129.54 8.8"/><polygon class="cls-14" points="100.37 8.8 96.07 8.8 93.92 12.53 96.07 16.26 100.37 16.26 102.53 12.53 100.37 8.8"/><polygon class="cls-14" points="129.54 17.07 125.24 17.07 123.08 20.79 125.24 24.52 129.54 24.52 131.69 20.79 129.54 17.07"/><polygon class="cls-14" points="121.97 29.89 117.66 29.89 115.51 33.62 118.48 32.69 120.96 34.25 124.12 33.62 121.97 29.89"/></g></g></svg>