<svg xmlns="http://www.w3.org/2000/svg" viewBox="0 0 147.44 144.23"><defs><style>.cls-1{fill:#b3b3b3;}.cls-2{fill:#f04;}.cls-3{fill:#d1a300;}.cls-4{fill:#232323;}.cls-5{fill:#474747;}.cls-6{fill:#333;}.cls-7{fill:#fff;}.cls-8{fill:#1a1a1a;}.cls-9{fill:#8c00ff;}.cls-10{fill:#6200ad;}</style></defs><g id="Layer_2" data-name="Layer 2"><g id="Layer_1-2" data-name="Layer 1"><rect class="cls-1" x="21.12" y="48.66" width="107.75" height="87.3" rx="2.07"/><path class="cls-2" d="M73.42.2,2.2,64a.79.79,0,0,0,.53,1.37H146.66a.79.79,0,0,0,.51-1.38L74.46.19A.79.79,0,0,0,73.42.2Z"/><path class="cls-3" d="M100.45,50.16a6.85,6.85,0,1,1-13.69,0H62.65a6.85,6.85,0,1,1-11.08-5.37,6.85,6.85,0,1,1,11.08-5.38H86.76a6.85,6.85,0,1,1,11.08,5.38A6.77,6.77,0,0,1,100.45,50.16Z"/><path class="cls-4" d="M96.27,100.11V136.8H53.73V100.11c0-9.7,9.52-17.58,21.27-17.58S96.27,90.41,96.27,100.11Z"/><path class="cls-5" d="M66.72,42.13h1.53v4.34h2.34l-.15,1.14H66.72Z"/><path class="cls-5" d="M73.66,42.13v5.48H72.13V42.13Z"/><path class="cls-5" d="M75.66,42.13h1.53v4.34h2.34l-.16,1.14H75.66Z"/><path class="cls-5" d="M81.36,47.61v-2a.34.34,0,0,0,0-.21l-1.73-3.31h1.71c.32.79.69,1.68.91,2.25l.92-2.25H84.7l-1.76,3.29a.43.43,0,0,0,0,.21v2Z"/><path class="cls-1" d="M53.67,75.4a22.89,22.89,0,0,1-14.08,4.23C33,79.52,28,76.92,26,75.31c-2.22-1.83,5.75-7,13.83-7S56,73.69,53.67,75.4Z"/><path class="cls-6" d="M24.62,74.35c-.78.91-1.36,1.19-1.37,2.61,0,4.83,11,8.38,15.45,8.37,7.91,0,16.39-3.27,16.37-7.78,0-1.21-.67-1.33-1.4-2.15a25.32,25.32,0,0,1-14.28,4.23A25.84,25.84,0,0,1,24.62,74.35Z"/><path class="cls-7" d="M64.83,57c0,6.57-4.52,15.36-12.81,19.8-1,.55-7.81-3.7-12.17-3.7-4,0-12.58,3.45-13.5,2.85S14,67.38,14.9,57c0-.31.06-.62.11-.93L15,56c.74-4.61,3.82-8.56,8-11.47l0,0a27.13,27.13,0,0,1,4.46-2.55l.13-.06a30.11,30.11,0,0,1,12.24-2.76,34.72,34.72,0,0,1,12.24,2.11h0a25,25,0,0,1,4.43,2.17c4.51,2.78,7.53,6.82,8.14,11.74A16,16,0,0,1,64.83,57Z"/><path class="cls-4" d="M52.76,46.42a37.34,37.34,0,0,0-4.3-1.63,26,26,0,0,0-8.25-1.34c-4,0-10.18,1.93-12.35,2.89a11.39,11.39,0,0,0-4.2,2.79,7.13,7.13,0,0,0-2.13,3.79c-.63,5.06,5,10.45,9.1,10.23,5.48-.31,5.4-2.82,9.22-2.82,3.08,0,3.34,1.6,6.93,2.82s13-4.56,12.09-10.23C58.18,48.6,53.1,46.6,52.76,46.42Z"/><path class="cls-6" d="M42.31,61.51a5.88,5.88,0,0,0-4-.3c-.71.22-3.35,1.06-3.38,2.3s2.6,4.1,4.92,4.15c2,0,4.75-2.37,4.91-3.84C44.9,62.66,43.41,62,42.31,61.51Z"/><path class="cls-8" d="M27.45,51.22a4.41,4.41,0,0,0,3.08.92,4.34,4.34,0,0,0,2.61-1.23,4,4,0,0,1,1.08,2.92,4.15,4.15,0,0,1-4.31,3.38c-1.83-.09-3.82-1.52-3.84-3.38A3.62,3.62,0,0,1,27.45,51.22Z"/><path class="cls-8" d="M46.05,51.22a4.41,4.41,0,0,0,3.08.92,4.34,4.34,0,0,0,2.61-1.23,4,4,0,0,1,1.08,2.92,4.15,4.15,0,0,1-4.31,3.38c-1.83-.09-3.82-1.52-3.84-3.38A3.62,3.62,0,0,1,46.05,51.22Z"/><path class="cls-1" d="M28.38,41.56c-1.34-2.47-4.19-3.9-3.85-3.28.47.86-.14,2.47-.75,5.89C22.35,50.83,19.72,59.44,18,59.83c-.87.21-1.67-1.55-2.29-4.07a43.38,43.38,0,0,1-1.1-12.22C15.22,37.85,24,34.33,26.79,36a4.14,4.14,0,0,1,2.11,3.08A2.59,2.59,0,0,1,28.38,41.56Z"/><circle class="cls-7" cx="50.81" cy="52.97" r="0.55"/><circle class="cls-7" cx="31.96" cy="52.97" r="0.55"/><circle class="cls-7" cx="29.17" cy="54.41" r="1.21"/><circle class="cls-7" cx="47.99" cy="54.41" r="1.21"/><polygon class="cls-6" points="72.24 104.31 55.87 125.83 59.2 128.73 73.29 105 72.24 104.31"/><path class="cls-7" d="M23.76,75.31C7.16,92.08,6.42,110.47,7.24,117.66c3.35,29.34,12.32,16.3,29.59,16,16.55-.31,24,12.39,31.32-16.81,1.09-4.39,2.57-24.34-13.37-40.33,2.11,5.07-9.78,9-15.88,8.83C27.25,84.94,21.46,78.84,23.76,75.31Z"/><path class="cls-4" d="M34.06,118.38c0,10.87-.39,18.14-.47,19.52a6.33,6.33,0,0,1-6.48,5.92,7,7,0,0,1-6.63-5.69c-.56-2.4-.21-6.95-.19-20.28,0-.71,0-2.84,0-5.93,0-2.44,0-4.53.07-6.68a42,42,0,0,1,6.38-.61,44.77,44.77,0,0,1,7.3.31C33.88,110.53,34.06,115.14,34.06,118.38Z"/><path class="cls-4" d="M53.29,118.79c0,10.87-.4,18.14-.48,19.52a6.32,6.32,0,0,1-6.47,5.92,7,7,0,0,1-6.63-5.69c-.57-2.4-.22-6.95-.2-20.28,0-.71,0-2.84,0-5.93,0-2.44,0-4.53.07-6.68A42.15,42.15,0,0,1,46,105a44.88,44.88,0,0,1,7.3.31C53.1,110.94,53.28,115.55,53.29,118.79Z"/><path class="cls-1" d="M27.28,99.78c-5.51,0-7.22,3.46-7.22,6.1,0,1.23,1.22.21,6.73.21s7.63.54,7.63,0C34.42,103.45,32.79,99.78,27.28,99.78Z"/><path class="cls-1" d="M46.3,99.78c5.51,0,7.21,3.46,7.21,6.1,0,1.23-1.21.21-6.72.21s-7.63.54-7.63,0C39.16,103.45,40.79,99.78,46.3,99.78Z"/><path class="cls-1" d="M6.61,130.34c-3.56.07-6.66-3.51-6.61-8,.06-4.77,2.78-7.77,6.29-8.27a2.46,2.46,0,0,1,1,.08c3.33,1.22,5,6.36,4.64,10S10.31,130.27,6.61,130.34Z"/><path class="cls-4" d="M14.34,127.29c1.84,4.54,3.83,10.58,1.09,14-2.38,3-8.69-1.83-11.71-7.91s-4.83-12.69.77-14.11C7.71,118.51,11.78,121,14.34,127.29Z"/><path class="cls-1" d="M67.2,130.47c3.53.46,7-2.76,7.45-7.24.47-4.74-1.91-8-5.34-8.92a2.76,2.76,0,0,0-1,0c-3.45.84-5.71,5.76-5.71,9.42S63.53,130,67.2,130.47Z"/><path class="cls-4" d="M58.64,127c-2.43,4.48-5.17,10.49-2.74,14.39,2.11,3.39,9.18-.89,13-6.83s6.45-12.56.83-14.66C66.49,118.68,62,120.8,58.64,127Z"/><path class="cls-6" d="M28.38,41.56h0a.52.52,0,0,0-.13.06,27.83,27.83,0,0,0-4.46,2.54c.61-3.42,1.22-5,.75-5.89C24.19,37.66,27,39.09,28.38,41.56Z"/><path class="cls-1" d="M52,41.15c1.34-2.47,4.19-3.9,3.84-3.28-.47.86.15,2.48.76,5.9C58,50.43,60.6,59,62.29,59.43c.87.2,1.67-1.56,2.28-4.07a43.48,43.48,0,0,0,1.1-12.23c-.56-5.69-9.33-9.21-12.14-7.53a4.11,4.11,0,0,0-2.1,3.07A2.55,2.55,0,0,0,52,41.15Z"/><path class="cls-6" d="M52,41.15v0a.38.38,0,0,1,.13.06,28.72,28.72,0,0,1,4.46,2.54c-.61-3.42-1.23-5-.76-5.9C56.14,37.25,53.29,38.68,52,41.15Z"/><path class="cls-2" d="M40.09,136.65a7.55,7.55,0,1,1-2.37-5.51A7.58,7.58,0,0,1,40.09,136.65Z"/><path class="cls-9" d="M23.76,75.31c-5.38,0-7.8,3.62-7.8,8.51,0,1,5.13,13.68,21.33,20.35,5.63-3.08,10.7-4.27,16.91-9.23,5.32-4.25,7.23-10,7.23-11.6,0-5.81-5.31-7.22-6.65-6.84C51.49,82.41,43.91,85,38.88,85,32.14,84.94,27.12,81.35,23.76,75.31Z"/><circle class="cls-2" cx="74.04" cy="102.62" r="2.85"/><path class="cls-3" d="M36.62,130.28a9.1,9.1,0,0,1,0,.91,10.18,10.18,0,0,1-10.09,10.18,7.64,7.64,0,0,0,1,1,11.23,11.23,0,0,0,10.18-11.18v-.05A7.58,7.58,0,0,0,36.62,130.28Z"/><path class="cls-10" d="M15.94,83.89c-.21-.58.18-3.81,1-4.7a40.91,40.91,0,0,0,6.61,8.11,49.86,49.86,0,0,0,13.78,8.61c.62,0,17.63-6.32,23.09-16.48h0a7.59,7.59,0,0,1,.87,5.1c-3.17,12.53-19.16,16.72-24,19.64C31.64,101.82,20.34,95.83,15.94,83.89Z"/></g></g></svg>