<svg xmlns="http://www.w3.org/2000/svg" viewBox="0 0 599.02 602.07"><g id="Layer_2" data-name="Layer 2"><g id="Layer_1-2" data-name="Layer 1"><path d="M596,356.1c-25.86,140-148.56,246-296,246-149.56,0-273.65-109.07-297.06-252,18.66,64.21,78,111.28,148.18,111.28h97A154.32,154.32,0,0,0,399.44,280a16.31,16.31,0,0,0-16-13.53H353.21a40.45,40.45,0,0,0-29.79,13,16.31,16.31,0,0,0-4.06,14,75.64,75.64,0,0,1,1.27,13.57,73,73,0,0,1-73.08,73.07H151.11A73.16,73.16,0,0,1,78,306.34c.4-40.23,33.78-72.34,74-72.34h10.69a29.11,29.11,0,0,0,15.52-4.48l1.05-.67a26.28,26.28,0,0,0,9.15-9.89A187.66,187.66,0,0,1,217,179.33a15.76,15.76,0,0,0-11.5-26.53H151.11C76.71,152.8,14.44,205.74,0,275.94,12.75,121.42,142.19,0,300,0,454.43,0,581.71,116.3,599,266.1c-18-66.83-79.72-115.58-152-114.19l-96.43,1.87h-.53A154.2,154.2,0,0,0,199.36,311a146.77,146.77,0,0,0,2.91,27l.07.3a16.27,16.27,0,0,0,15.07,12.86l1.13.06c10.06.58,20.15-.39,30.22-.59a40.45,40.45,0,0,0,29.53-13.56A16.31,16.31,0,0,0,282.08,323a76.18,76.18,0,0,1-1.54-13.55A73.05,73.05,0,0,1,352.19,235l96.43-1.86a73.16,73.16,0,0,1,74.48,72.37c.38,40.22-32.37,73-72.59,73.76l-18.83.36A16.25,16.25,0,0,0,417.3,389a187,187,0,0,1-30.7,46.16c-9.23,10.21-1.77,26.51,12,26.24L453,460.38C519.54,459.1,575.55,415.67,596,356.1Z"/></g></g></svg>