<svg xmlns="http://www.w3.org/2000/svg" viewBox="0 0 477.03 134.61"><defs><style>.cls-1{fill:none;}.cls-1,.cls-2{stroke:#8c00ff;stroke-miterlimit:10;stroke-width:3px;}.cls-2{fill:#7252a2;}</style></defs><g id="Layer_2" data-name="Layer 2"><g id="Layer_1-2" data-name="Layer 1"><g id="Layer_2-2" data-name="Layer 2"><g id="Layer_1-2-2" data-name="Layer 1-2"><path class="cls-1" d="M316.56,37.28c2.29-2.19,2.43-2.11,2.76-3.33.26-.94-.43-2-1.7-2.93-14.81-11.1-43.29-15.68-74.32-19.57-34.22-4.29-61.55-3.2-83.34.28-51.62,8.28-84.83,24-90,26.33-8.92,4-16,9.07-19.06,14.34-1.88,3.22-3.22,7.14-2,10.79C52.83,74.56,81,74.25,88.4,74.28c0,0,23.8-1,42.6-12.27a26.3,26.3,0,0,0,9.73-11.23c2.43-5,3.58-11.45,2.17-12.11S137,44,134.48,48.75c-1.14,2.19-4.79,9.17-2.93,10.8,2.9,2.55,15-6.06,19.4-8.08C154,50,148,65.33,151,65.19,167.64,64.37,178.75,41,175.67,48c-3.7,8.51-4.49,12.86-2.52,14.19,2.37,1.61,15.29-10.64,23.21-26.47a78.81,78.81,0,0,0,6.09-16.68c-12.65,34.09-13,43.68-10.29,45.16s10.64-5.08,14.64-11.46A28.46,28.46,0,0,0,211,40.83c-4.28,16.07-4.48,21.19-3.22,21.28,10.21.77,16-18.84,15.73-17.42-.47,2.45,1.9,4.76,4.39,5.73,8.51-.07,14.52-15,11.19-7.28-.79,1.81-8.94,21.55-6.53,22.07,6.25,1.37,17.57-23.87,21.56-20.5,1.19.59,1.4,4,1.19,5.94"/><path class="cls-1" d="M245.74,52c-4.17,7.48-5.17,14.13-1.9,14.44,20.64,2,55.49-66.09,49.06-55.65C285.26,23.22,258.84,63.74,260.77,65c1.55,1,13.76-12.47,25.05-20.48,6.2-4.4-3.43,13,4.47,26"/><path class="cls-1" d="M285.26,45.12C297.34,33.61,305.81,30.76,307,30.48c4.24-1.07.93,1.41.88,2.82"/><path class="cls-1" d="M293.52,9.9c.54-.71,6.67-9,20-8.36,3.79.17,11.94,2.36,13.1,7,.7,2.8-.37,10.23-30.19,26.08"/><path class="cls-1" d="M296.51,34.57c-30.44,25-19.24,9.23-23.3,8.39"/><path class="cls-1" d="M299.75,52.46c-3.9.13-10,5.34-11.9,12.22-.61,2.22,1.55,2.87,1.9,3,5.26,1.77,9.22-7.09,14.59-10.11C306.58,56.29,302.44,52.37,299.75,52.46Z"/><path class="cls-1" d="M305,56.86c-1.91,3.49-.26,9.59,1.07,11,2.38,2.51,14.53-.82,17.31-7.59-.7,3.5-2.92,9-2.09,8.5,2.76-1.56,9.09-11.67,11.49-6,1.63,3.81,0,7.66,1.84,9.12,2.52,2,12.26.1,15.49-2.45,4.71-3.73,2.7-14.81-3.61-13.84-6.58,1-8.68,13.48-4.94,15.57,6.15,3.44,21.4-11.51,22.53-13a120.56,120.56,0,0,0,11.06-16.56c3-5.25,5.48-12.33,4-13.29S374.3,32.2,372.72,34c-4.38,4.86-10.59,14.9-12.34,25.77a7.32,7.32,0,0,0,4.15,7.88c4.86,2.26,12.67-5.45,16.61-11.19.89-1.31,3.48-5.34,2.86-5.86-.89-.75-7.49,5.52-9.81,12-1.71,4.77-1.41,8.6.87,9.25,5.37,1.52,16.45-6.48,22.13-12.42,1.69-1.77,15.3-16.74,15-17.07S396.2,57.18,393,60.58c-2.09,2.24-8.57,9.18-6.93,12.29,2.44,4.65,23.51,1.63,38.89-9.8a56.71,56.71,0,0,0,12.77-13.28,273.62,273.62,0,0,0-25.45,30.58c-6.75,9.47-40.6,47.75-43.63,53.33,8.16-10.61,22.93-30.89,59.76-44.84C443.8,83,459.35,79,477,79.15c-138.32,2.66-277.14,4.12-415.5,6.77-9.13.32-21.12-.32-37.17-2C13.26,82.78,1.4,79.78,1.5,79.14c.05-.35,3.71-.29,19.24,1.5"/><path class="cls-1" d="M166.18,30.44a15.49,15.49,0,0,0,3.53.28c1.94-.08,4-1,4-1.37s-2.23-.55-4.15-.27S164.84,30.29,166.18,30.44Z"/><path class="cls-2" d="M249.67,26.5a2.56,2.56,0,0,1-1.61.49,1.54,1.54,0,0,1-1.33-.72,1.26,1.26,0,0,1,.47-1.55,5.38,5.38,0,0,1,2.3-.71c1.49-.21.91-2.52,1.16-2.52s.92,1.33.09,3.63A3.63,3.63,0,0,1,249.67,26.5Z"/><path class="cls-2" d="M250.41,21.15c-.51-.35-2.25-1-5.33-.6-2.67.36-4.1.57-4.09.62s8.44-1.91,9.46,1.1a8.72,8.72,0,0,1,.28,2.11C249.56,27.11,252.35,22.53,250.41,21.15Z"/><path class="cls-1" d="M183.27,33.79a144.67,144.67,0,0,0,29.51-8.38"/></g></g></g></g></svg>