<svg xmlns="http://www.w3.org/2000/svg" viewBox="0 0 554.8 552.29"><path d="M491.75,103.59A298.06,298.06,0,0,0,471.35,81,280.79,280.79,0,0,0,443,56.14c-.9-.68-1.79-1.35-2.7-2-.57-.44-1.15-.86-1.72-1.27l-2.3-1.67-.44-.3c-.84-.61-1.67-1.2-2.52-1.78A272.21,272.21,0,0,0,335.28,6.33l-3.36-.71L328.75,5l-.47-.09-2.69-.49q-.4-.09-.81-.15l-2.22-.39-1.28-.21q-1.15-.2-2.31-.36c-.92-.15-1.86-.29-2.78-.42s-1.57-.23-2.35-.33a2.2,2.2,0,0,0-.37-.06l-3.17-.41q-3.39-.4-6.78-.74C300.13,1,296.71.73,293.3.52L289.87.34c-1.13-.06-2.25-.11-3.38-.15S284.16.1,283,.09L279.55,0l-3.2,0-2.9,0h-.81l-.82,0-3.5.1L264.94.3l-3.42.19c-3.42.2-6.84.47-10.23.81q-3.39.33-6.78.75l-3.17.41-.37,0-2.35.33c-.93.13-1.86.27-2.78.42s-1.54.23-2.31.36l-1.27.22L230,4.22l-.81.15-2.69.49-.47.1-3.16.62-3.36.71A272.52,272.52,0,0,0,116.19,52.83c-.66.47-1.33,1-2,1.45l-2.42,1.82A280.79,280.79,0,0,0,83.46,80.93q-10.62,10.63-20,22.18h0C24.66,150.53,1.47,208.69.06,270.23q-.06,3-.06,6c0,1.48,0,3,0,4.46s0,2.76.1,4.14c0,.29,0,.6,0,.91,0,1.09.07,2.18.14,3.26,0,.46,0,.92.06,1.39,0,.85.09,1.7.14,2.54s.1,1.49.14,2.24c.1,1.37.21,2.73.32,4.09.08,1,.18,2.08.29,3.11.06.74.14,1.47.21,2.2,0,.31.07.62.11.94q.12,1.21.27,2.43C2,309,2.1,310,2.23,311A271.78,271.78,0,0,0,38.7,415.83,278.52,278.52,0,0,0,72.41,461c.59.66,1.2,1.32,1.82,2a279.43,279.43,0,0,0,21.15,20.43c.16.15.34.29.51.44a281.81,281.81,0,0,0,50.44,34.86c3.36,1.82,6.75,3.57,10.2,5.25l2.14,1a277.4,277.4,0,0,0,109.4,27.07c1.14,0,2.28.08,3.41.11H272l2.5,0c1.1,0,2.19,0,3.3,0h1.66c.76,0,1.53,0,2.29,0l1.1,0a4.87,4.87,0,0,0,.54,0l3.39-.11a277.48,277.48,0,0,0,109.39-27.07l1.87-.9q5.29-2.58,10.48-5.39a281.73,281.73,0,0,0,50.43-34.86c.2-.17.4-.33.58-.5A277.82,277.82,0,0,0,480.58,463c.61-.66,1.23-1.32,1.83-2a277.66,277.66,0,0,0,33.69-45.17,271.41,271.41,0,0,0,36.67-106.38l.33-2.8c.1-.88.19-1.77.28-2.66s.2-1.9.28-2.86c.13-1.38.25-2.78.35-4.17s.21-2.78.29-4.18c.06-.78.1-1.57.13-2.35s.08-1.58.11-2.36.08-1.57.1-2.36,0-1.35.06-2c0-.91.06-1.83.07-2.74,0-.58,0-1.17,0-1.76,0-.38,0-.76,0-1.15s0-.67,0-1v-.85C554.8,212.68,531.54,152.45,491.75,103.59ZM391,286.26a375.38,375.38,0,0,1-23,30l-.71.82c-19.53,22.77-50.16,52.78-88.69,70.92l-1.23.57c-1.41.66-2.82,1.3-4.25,1.91-43.79,18.9-60.94,20.52-82.84,17.29-13.3-2-40.78-16.67-46.5-32.83s-5.72-30-4-32.84c1.62-3.11,6.22-4.85,13.06-8.2,4.68-2.39,22.07-11,34.62-16.84.57-.28,1.14-.54,1.7-.8,5-2.33,9-4.12,10.82-4.75,6.34-2.36,10.94-3.48,15.54,3.48s17.79,22.39,21.9,27.11,8.08,5.23,14.92,1.75c9-4.49,17.27-8.77,25-13.21l1.23-.69c26.7-15.42,47.13-33,67.64-68.19,7.1-12.19-7.08-11.32-20.27-37.69-2.24-4.6-1.12-8.57.63-12.06s15.55-37.43,21.26-51.23c5.6-13.44,11.32-11.58,15.55-11.82,4-.25,8.58-.25,13.18-.25A25.56,25.56,0,0,1,395,157.29c6.34,7,24.13,23.63,24.13,57.58S394.37,281.66,391,286.26Z"/></svg>