<svg xmlns="http://www.w3.org/2000/svg" viewBox="0 0 587.41 551.91"><path d="M587.39,272.32c0-.15,0-.3,0-.45,0-1.16,0-2.32-.06-3.49l-.09-2.68c0-.5,0-1-.05-1.52,0-1.41-.12-2.82-.2-4.21-.06-1.09-.12-2.17-.19-3.26-.06-.75-.11-1.52-.16-2.28s-.1-1.29-.15-1.93c-.07-1-.15-1.93-.23-2.89-.12-1.23-.23-2.45-.36-3.68-.07-.7-.15-1.39-.22-2.09-.11-1-.21-1.92-.33-2.88s-.22-1.91-.35-2.87c-.06-.56-.14-1.09-.22-1.64,0-.4-.12-.81-.17-1.21-.11-.88-.24-1.78-.38-2.67a2.6,2.6,0,0,0,0-.26c0-.1,0-.2,0-.3-.06-.36-.11-.72-.17-1.08s-.14-.93-.22-1.38l-.42-2.57,0-.21c-.17-1-.35-2-.53-3s-.41-2.27-.63-3.4-.39-2-.6-3.06c0-.23-.1-.47-.15-.7-.23-1.14-.46-2.27-.72-3.4h0c-.23-1.08-.47-2.15-.72-3.23,0-.11,0-.21-.07-.32-.27-1.18-.56-2.36-.84-3.56s-.58-2.34-.89-3.51-.61-2.35-.92-3.51c-.25-.91-.5-1.82-.76-2.71a.3.3,0,0,0,0-.1c-.2-.73-.4-1.45-.62-2.18s-.34-1.19-.52-1.78c-.07-.19-.12-.38-.18-.57-.5-1.68-1-3.35-1.54-5-.13-.41-.27-.82-.41-1.23q-4-12.54-9.16-24.54-1.24-2.92-2.57-5.84c-.42-.93-.85-1.87-1.29-2.81-.13-.3-.27-.6-.42-.89-.06-.14-.13-.27-.19-.41-.28-.61-.57-1.23-.87-1.84-.07-.16-.15-.33-.24-.5a2.2,2.2,0,0,0-.15-.31c-.47-1-.95-1.95-1.43-2.92s-1-2-1.47-2.91a2.8,2.8,0,0,0-.15-.3c-.43-.83-.85-1.65-1.29-2.47-.08-.17-.18-.33-.26-.5s-.12-.23-.18-.35L552,136c-.08-.15-.16-.31-.25-.45l-1.46-2.66c-.59-1-1.17-2.06-1.76-3.08q-1.75-3.08-3.6-6.11c-.61-1-1.23-2-1.86-3s-1.28-2-1.92-3-1.26-2-1.9-2.92-1.15-1.76-1.74-2.62c-.19-.3-.39-.61-.61-.9L535.38,109l-.41-.58c-.57-.83-1.15-1.66-1.74-2.48s-1.37-1.91-2.07-2.86h0q-2.1-2.85-4.24-5.66c-.26-.33-.5-.66-.77-1-.45-.6-.91-1.2-1.39-1.79-.25-.34-.52-.67-.78-1-.47-.59-.94-1.19-1.42-1.78-.63-.8-1.27-1.59-1.92-2.36-1.65-2-3.34-4-5-6-1.48-1.7-3-3.38-4.49-5l-.05,0c-.77-.86-1.54-1.69-2.32-2.54s-1.62-1.72-2.42-2.56-1.63-1.7-2.45-2.54-1.64-1.67-2.47-2.5l-2.22-2.2q-2.66-2.61-5.4-5.15l-2.58-2.38c-.87-.79-1.75-1.58-2.63-2.35l-.5-.45q-3.71-3.27-7.53-6.43c-.92-.76-1.84-1.52-2.78-2.26l-.12-.1c-.72-.59-1.45-1.17-2.18-1.74L475,44.9l-1.39-1.09-1.89-1.46-1.91-1.44-.53-.4c-.89-.67-1.8-1.34-2.72-2l0,0-2.81-2c-.59-.43-1.19-.84-1.77-1.25l-1-.67-.52-.35c-.84-.6-1.71-1.18-2.56-1.76s-2-1.32-2.94-2h0q-2-1.31-4-2.56l-1.2-.76c-1.26-.79-2.53-1.58-3.8-2.35-.16-.11-.32-.2-.48-.3l-1.29-.77c-.42-.26-.84-.52-1.28-.76l-2-1.18-1.89-1.09c-1.07-.61-2.15-1.22-3.23-1.81l-.06,0c-1.08-.6-2.16-1.19-3.25-1.77a.83.83,0,0,0-.13-.07c-1.08-.59-2.16-1.16-3.25-1.72s-2.23-1.15-3.35-1.72-2.06-1-3.09-1.53l-1.4-.68-2.15-1a1.92,1.92,0,0,0-.25-.12c-1-.45-1.94-.92-2.92-1.36l-.59-.28-.68-.3L412.1,7.1c-1-.44-2-.87-3-1.29l-1.33-.56c-1-.43-2.06-.87-3.1-1.29-1.83-.75-3.66-1.47-5.51-2.19h0l-2-.75c-.83-.32-1.68-.63-2.52-.94L394.5,0H192.91c-1.18.43-2.36.88-3.55,1.33s-2.23.86-3.34,1.3-2,.8-3,1.21c-2.32.93-4.61,1.91-6.89,2.91-1.09.47-2.18,1-3.26,1.45s-1.92.86-2.87,1.31l-.38.17-2.32,1.1-2.1,1-2.59,1.27-.67.34-1.91,1c-2.11,1.08-4.21,2.18-6.29,3.32l-3.11,1.71c-1,.58-2.07,1.16-3.09,1.75L144.45,23c-1,.6-2,1.2-3,1.82a0,0,0,0,0,0,0c-3,1.83-6,3.73-9,5.67a2.2,2.2,0,0,0-.25.17c-.9.58-1.8,1.18-2.7,1.79-1.17.79-2.33,1.59-3.48,2.39s-2.3,1.63-3.46,2.45l-1.62,1.17-.11.08-1.64,1.2-.06,0c-1.13.85-2.25,1.69-3.36,2.54l-.82.63-.52.39c-.49.39-1,.78-1.5,1.16l-.54.44-.85.67c-1.47,1.16-2.93,2.34-4.37,3.52-.1.07-.18.15-.28.23-.91.75-1.81,1.5-2.7,2.26s-1.8,1.52-2.69,2.29L98.84,56.2l-.32.28c-1.34,1.21-2.69,2.42-4,3.65l-.41.38-.79.72-2.24,2.12-.08.08c-.73.69-1.46,1.4-2.18,2.1l-.77.75c-.4.38-.79.77-1.18,1.16L85.2,69.1l-1.65,1.68-.57.58c-.62.65-1.26,1.29-1.88,2l-2.19,2.31-.23.25c-.8.87-1.59,1.72-2.38,2.6q-4,4.44-7.87,9c-.63.74-1.25,1.49-1.86,2.24s-1.32,1.62-2,2.43-1.3,1.63-1.94,2.45l-.37.47-.33.41-.68.88c-.27.34-.53.69-.79,1-.71.93-1.43,1.87-2.13,2.81s-1.2,1.62-1.8,2.44c-.16.2-.31.4-.45.61-.61.83-1.21,1.68-1.81,2.51s-1.2,1.7-1.79,2.55c-.49.68-1,1.39-1.45,2.09s-.93,1.35-1.38,2-1,1.47-1.47,2.21-1.15,1.75-1.71,2.63l-.72,1.11c-.45.7-.89,1.41-1.34,2.13-.81,1.31-1.62,2.62-2.42,4-1,1.73-2.07,3.47-3.08,5.24-.59,1-1.18,2.06-1.76,3.1S36,134.92,35.45,136s-1.13,2.09-1.67,3.13c-.37.69-.73,1.39-1.09,2.08s-.7,1.34-1,2c-.92,1.8-1.8,3.61-2.69,5.44-.62,1.3-1.24,2.61-1.85,3.93l-.1.22c-.33.7-.65,1.39-1,2.09L26,155l0,.08c-.38.84-.75,1.66-1.11,2.5-.1.2-.18.4-.26.6q-.52,1.17-1,2.34l-.74,1.74c-.05.1-.09.22-.13.32-.21.47-.4.94-.6,1.41l0,.08q-4.3,10.47-7.82,21.34c-.29.85-.56,1.72-.83,2.57-.07.25-.15.48-.22.72-.35,1.1-.68,2.21-1,3.32-.71,2.31-1.38,4.63-2,7s-1.23,4.67-1.8,7c-.29,1.2-.58,2.38-.85,3.56a2.82,2.82,0,0,0-.07.31q-.37,1.62-.72,3.24c-.27,1.19-.52,2.4-.76,3.59s-.49,2.39-.71,3.59-.45,2.4-.68,3.6-.42,2.42-.62,3.63-.39,2.43-.58,3.64-.36,2.43-.53,3.64c0,.12,0,.25-.05.37-.15,1.1-.31,2.21-.44,3.31s-.25,1.94-.35,2.92c-.06.38-.1.79-.14,1.18s-.09.78-.13,1.17v0c-.1.93-.2,1.86-.29,2.79q-.3,2.93-.52,5.85c0,.31-.05.62-.07.92s0,.61-.07.93-.05.63-.07.95l0,.45c0,.36,0,.72-.07,1.07-.09,1.34-.17,2.68-.24,4l-.06,1.43c-.06,1.11-.11,2.23-.14,3.35h0c0,.92-.06,1.84-.08,2.75,0,1.17-.06,2.33-.07,3.5,0,.15,0,.3,0,.44,0,1.22,0,2.43,0,3.64s0,2.43,0,3.65V280c0,1.18,0,2.36.08,3.53,0,1,0,2,.09,3,0,.42,0,.83,0,1.25,0,1.1.1,2.19.15,3.28,0,.8.08,1.6.14,2.39,0,.39,0,.78.07,1.17.05.9.12,1.78.18,2.67,0,.61.09,1.24.14,1.85,0,.77.11,1.55.19,2.32,0,.47.07.92.11,1.38.1,1,.21,2.09.31,3.13.09.82.17,1.64.26,2.45s.2,1.77.3,2.65.2,1.7.31,2.55c.15,1.13.3,2.27.46,3.4s.3,2.07.46,3.1.28,1.87.43,2.8l0,.2c.12.72.23,1.45.36,2.18l.06.36c.15.93.32,1.85.49,2.78s.38,2.08.58,3.11.42,2.14.63,3.2c.05.22.09.45.14.67.22,1.1.45,2.19.7,3.29a.43.43,0,0,0,0,.11c.24,1.13.5,2.26.75,3.38a.64.64,0,0,1,0,.07c.27,1.18.56,2.37.85,3.55s.58,2.36.88,3.53c.16.63.33,1.25.5,1.89,0,.1.05.2.08.3.14.58.29,1.12.45,1.68q.47,1.74,1,3.45c.29,1,.59,2.07.91,3.1.14.51.29,1,.44,1.5.21.68.41,1.34.62,2,.08.25.15.51.23.75.28.9.56,1.79.86,2.69.76,2.35,1.54,4.68,2.37,7,.35,1,.71,2,1.07,3,.18.5.37,1,.55,1.49s.37,1,.56,1.48c.37,1,.75,2,1.13,3,.25.64.5,1.28.76,1.91.32.8.65,1.6,1,2.4.45,1.11.9,2.2,1.38,3.3.25.58.49,1.16.74,1.73s.45,1.05.68,1.57c.47,1.09,1,2.17,1.45,3.26.91,2,1.83,4,2.78,6,.18.39.37.78.56,1.17.41.85.82,1.68,1.24,2.52s.93,1.87,1.41,2.8c.6,1.2,1.21,2.37,1.84,3.54L35,415.17c.36.67.72,1.34,1.09,2q1.37,2.5,2.8,5c.55,1,1.11,1.91,1.67,2.87l.66,1.12c.34.58.69,1.15,1,1.72.2.35.41.69.62,1,.49.79,1,1.58,1.47,2.37.6,1,1.2,1.92,1.82,2.88a3,3,0,0,0,.19.3c1.23,1.92,2.49,3.82,3.76,5.71.66,1,1.34,2,2,3,.39.57.78,1.13,1.2,1.69a4.58,4.58,0,0,0,.33.48l1.55,2.15c.32.47.66.93,1,1.4l.89,1.2.87,1.19.34.45,1,1.35c.32.45.67.9,1,1.34.61.81,1.24,1.62,1.87,2.42.84,1.1,1.71,2.17,2.59,3.25.73.92,1.46,1.83,2.21,2.74s1.5,1.8,2.26,2.7,1.52,1.8,2.3,2.68c1,1.16,2,2.3,3,3.45.29.34.6.68.91,1,1,1.12,2,2.22,3,3.32a.23.23,0,0,0,.07.07c.8.87,1.62,1.72,2.42,2.58s1.63,1.69,2.45,2.52,1.64,1.68,2.47,2.51,1.87,1.86,2.81,2.77c.65.64,1.29,1.26,1.93,1.87.95.91,1.91,1.82,2.87,2.71h0q3.85,3.6,7.85,7.06l2.69,2.29c.89.76,1.79,1.5,2.7,2.26s2.09,1.71,3.15,2.56l2,1.57c.32.26.64.51,1,.74,2.59,2,5.21,4,7.87,5.95L123,515c.71.52,1.43,1,2.16,1.53q2.18,1.53,4.36,3c1,.66,2,1.3,2.94,2s2,1.3,3,1.94,2,1.27,3,1.89l2.95,1.83.09,0c1,.6,2,1.2,3,1.79s2,1.21,3.06,1.79c2.05,1.18,4.12,2.33,6.19,3.46l.45.26h0c1.94,1,3.88,2.07,5.83,3.06.41.22.81.42,1.22.62.85.43,1.71.87,2.58,1.29s1.72.86,2.58,1.27q4.81,2.31,9.73,4.47,8.29,3.62,16.86,6.74h201.5l1.54-.56,1.64-.63,1.87-.71q2.81-1.1,5.58-2.23l3.48-1.44.81-.34,1.93-.83,1.8-.8,1.34-.61c.22-.09.44-.2.66-.31q1.2-.53,2.37-1.08c.24-.12.5-.24.74-.34.95-.43,1.88-.89,2.82-1.33,2.14-1,4.26-2.09,6.38-3.17,1-.54,2.09-1.08,3.12-1.63l0,0c1.82-1,3.63-1.93,5.41-2.92.79-.44,1.59-.88,2.37-1.33,1-.55,2-1.12,3-1.7l3.62-2.14.2-.12,3.78-2.33c1-.59,1.91-1.19,2.86-1.8l.22-.15c1-.64,2-1.28,3-1.94s2-1.29,2.94-2c2.92-2,5.82-4,8.67-6.09h0l3.34-2.47,2.31-1.77c.86-.65,1.71-1.31,2.56-2,1.93-1.5,3.83-3,5.72-4.61.91-.76,1.81-1.5,2.7-2.26l2.69-2.29,1.57-1.38,1.07-1,2.63-2.35c.86-.79,1.73-1.58,2.58-2.38l2.58-2.42c1.7-1.63,3.37-3.27,5-4.93.83-.83,1.65-1.66,2.47-2.51s1.64-1.68,2.45-2.52,1.62-1.71,2.42-2.58l.07-.07c1-1.1,2-2.2,3-3.32.31-.34.62-.68.91-1,1-1.15,2-2.29,3-3.45.79-.88,1.54-1.78,2.3-2.68l2.26-2.7c.75-.91,1.49-1.82,2.21-2.74.88-1.08,1.75-2.15,2.59-3.25.64-.8,1.26-1.61,1.87-2.42.35-.44.7-.89,1-1.34l1-1.35.34-.45.87-1.19.89-1.2c.68-.92,1.34-1.86,2-2.79a.33.33,0,0,0,0-.06c.68-.95,1.35-1.91,2-2.87s1.36-2,2-3c1.26-1.89,2.52-3.79,3.76-5.71.06-.09.12-.2.19-.3.61-1,1.21-1.92,1.81-2.88.5-.79,1-1.58,1.47-2.37.21-.34.42-.68.62-1,.57-.95,1.14-1.89,1.7-2.84s1.12-1.91,1.67-2.87q1.44-2.47,2.8-5c.37-.66.73-1.33,1.09-2l1.26-2.35c.62-1.17,1.23-2.34,1.83-3.54.48-.93.94-1.86,1.41-2.8s.83-1.67,1.24-2.52c.19-.39.38-.78.56-1.17,1-2,1.87-4,2.78-6,.49-1.09,1-2.17,1.45-3.26.07-.18.16-.35.23-.53.88-2,1.73-4,2.57-6.07.31-.8.64-1.6,1-2.4.26-.63.52-1.27.76-1.91.38-1,.76-2,1.13-3,.19-.5.38-1,.56-1.48s.37-1,.55-1.49c.36-1,.72-2,1.07-3,.83-2.32,1.61-4.65,2.37-7,.3-.9.58-1.79.86-2.69.08-.24.15-.5.23-.75.21-.67.41-1.33.62-2q1.21-4,2.31-8c.16-.56.31-1.1.45-1.68,0-.1.06-.2.08-.3.17-.64.34-1.26.5-1.89.31-1.17.6-2.35.89-3.53s.57-2.37.84-3.55a.64.64,0,0,1,0-.07c.26-1.12.51-2.25.75-3.38a.43.43,0,0,0,0-.11c.25-1.1.48-2.19.7-3.29,0-.22.1-.45.14-.67.22-1.06.43-2.13.63-3.2s.4-2.07.58-3.11.34-1.85.49-2.78l.06-.36c.13-.73.24-1.46.36-2.18l0-.2c.15-.93.3-1.86.43-2.8s.32-2.07.46-3.1.32-2.27.46-3.4c.11-.85.22-1.7.31-2.55s.21-1.77.3-2.65.18-1.63.26-2.45c.11-1,.21-2.09.31-3.13,0-.46.08-.91.11-1.38.08-.77.13-1.55.19-2.32.06-.61.1-1.24.14-1.85.06-.89.13-1.77.18-2.67,0-.39,0-.78.07-1.17.06-.79.11-1.59.14-2.39.05-1.09.11-2.18.15-3.28,0-.42,0-.83,0-1.25,0-1,.07-2,.1-3,0-1.17,0-2.35.07-3.53v-.39c0-1.22,0-2.44,0-3.65S587.4,273.54,587.39,272.32ZM410,312.12c-25.58,21.05-71.32,52.78-116.29,52.36-44.74.28-89.59-30.47-116.17-52.36-31.91-24.62-108.48-85-160.47-125.74q3.34-10.35,7.42-20.33C76,206.66,147.18,262.93,201.74,306c.64.49,1.26,1,1.91,1.47a194,194,0,0,0,37.5,22.69c14.85,6.64,31.88,11.44,50.67,11.6,44.44,0,73.38-20.5,87.38-31.69,47.21-37.73,72.61-57.81,114.37-90.59,18.22-14.3,40.36-34.32,68-56.64q4.86,11.49,8.75,23.51C537.66,210.88,488.6,247.64,410,312.12Z"/></svg>