<svg xmlns="http://www.w3.org/2000/svg" viewBox="0 0 578.62 572.32"><path d="M578.62,289.31c0,138.39-97.16,254.09-227,282.59l-2,.42V446.48c0-22.53-7.91-37.21-16.55-44.69,53.74-6,110.21-26.4,110.21-119.11,0-26.35-9.35-47.91-24.84-64.8,2.5-6.08,10.76-30.64-2.37-63.89,0,0-20.24-6.48-66.33,24.74a228.69,228.69,0,0,0-120.87,0C182.78,147.51,162.5,154,162.5,154c-13.12,33.23-4.85,57.79-2.36,63.89-15.42,16.89-24.86,38.42-24.86,64.8,0,92.47,56.37,113.17,110,119.3-6.92,6-13.17,16.68-15.33,32.27-13.78,6.17-48.72,16.83-70.24-20.06,0,0-12.76-23.19-37-24.88,0,0-23.58-.32-1.67,14.66,0,0,15.83,7.42,26.82,35.33,0,0,14,43.09,81.13,28.48V572.32l-1.6-.33C97.35,543.62,0,427.83,0,289.31,0,129.53,129.53,0,289.31,0S578.62,129.53,578.62,289.31Z"/></svg>