<svg xmlns="http://www.w3.org/2000/svg" viewBox="0 0 560.19 560.07"><path d="M558.23,164.56C556.1,119.69,545.85,80,513,47.21S440.5,4.22,395.63,2C349.39-.65,210.8-.65,164.56,2,119.82,4.09,80.08,14.34,47.21,47.09S4.22,119.57,2,164.43C-.65,210.67-.65,349.27,2,395.51c2.13,44.87,12.38,84.61,45.25,117.35s72.48,43,117.35,45.24c46.24,2.62,184.83,2.62,231.07,0C440.5,556,480.24,545.73,513,512.86s43-72.48,45.25-117.35C560.85,349.27,560.85,210.8,558.23,164.56ZM136.57,280a143.6,143.6,0,1,1,143.59,143.6A143.36,143.36,0,0,1,136.57,280ZM396.13,130.56a33.5,33.5,0,1,1,33.5,33.5A33.5,33.5,0,0,1,396.13,130.56Z"/></svg>