<svg xmlns="http://www.w3.org/2000/svg" viewBox="0 0 552.28 552.29"><path d="M276.14,0C123.63,0,0,123.64,0,276.15S123.63,552.29,276.14,552.29,552.28,428.66,552.28,276.15,428.65,0,276.14,0Zm-97,445.21H103.82V202.65h75.32Zm-37.7-275.65c-24.09,0-43.63-19.95-43.63-44a43.63,43.63,0,0,1,87.25,0C185.06,149.61,165.52,169.56,141.44,169.56ZM461.13,445.21H385.89V327.13c0-28.14-.57-64.23-39.16-64.23-39.16,0-45.16,30.57-45.16,62.2V445.21H226.32V202.65h72.25v33.08h1.05c10.05-19.06,34.62-39.17,71.27-39.17,76.23,0,90.24,50.2,90.24,115.4Z"/></svg>