<svg xmlns="http://www.w3.org/2000/svg" viewBox="0 0 551.54 551.54"><path d="M468.93,80.15A271.23,271.23,0,0,0,275.65,0C125,0,2.34,122.62,2.34,273.31A273.62,273.62,0,0,0,38.78,410L0,551.54l144.91-38a272.45,272.45,0,0,0,130.62,33.24h.12c150.56,0,275.89-122.62,275.89-273.31C551.54,200.43,520.52,131.86,468.93,80.15ZM164.48,283.4c-3.32-4.55-27.82-37-27.82-70.66s17.6-50.11,23.88-57a25.32,25.32,0,0,1,18.22-8.5c4.56,0,9.11,0,13.05.25,4.19.25,9.85-1.6,15.39,11.7,5.66,13.66,19.33,47.27,21.05,50.72s2.83,7.38.62,11.94c-13.05,26.1-27.09,25.24-20.07,37.3,26.47,45.43,52.81,61.19,92.95,81.25,6.77,3.45,10.83,2.84,14.77-1.72s17.11-19.94,21.67-26.84,9.11-5.78,15.39-3.44,39.89,18.71,46.66,22.16,11.32,5,12.92,8.12c1.73,2.83,1.73,16.5-3.94,32.5s-32.87,30.53-46,32.5c-21.67,3.2-38.66,1.6-82-17.11C212.62,356.9,167.93,288,164.48,283.4Z"/></svg>