<svg xmlns="http://www.w3.org/2000/svg" viewBox="0 0 568.52 457.63"><defs><style>.cls-1{fill:#f6783a;}.cls-2{fill:#020031;}</style></defs><g id="Layer_2" data-name="Layer 2"><g id="Layer_1-2" data-name="Layer 1"><path class="cls-1" d="M232,279.65c-.11,0-.21,0-.32-.06a5.5,5.5,0,0,0-.91-.08H207.09a6.8,6.8,0,0,0-6.81,6.8v8.07q15.85-6.92,32.15-14.61ZM291.84,242a5.1,5.1,0,0,0-5.1-5.1H263.81a2.34,2.34,0,0,1-2.34-2.34v-5.71a5.45,5.45,0,0,0-5.46-5.46H232.32a6.8,6.8,0,0,0-6.8,6.8V254.3a6.81,6.81,0,0,0,6.77,6.81l24.32.1c3.05,0,6.26-2.44,6.28-5.49l.05-6.85a2.27,2.27,0,0,1,2.27-2.25h14.64a2.07,2.07,0,0,1,2.07,2.07v6.24q4.95-2.64,9.92-5.36Zm-38.46,4.32a4.34,4.34,0,0,1-4.34,4.35H238.46a4.35,4.35,0,0,1-4.35-4.35v-9.45a4.34,4.34,0,0,1,4.35-4.34H249a4.34,4.34,0,0,1,4.34,4.34Zm153.78-.89v83A18.12,18.12,0,0,1,389,346.51H324.37l.49-49.31q-4.49,2.64-9.05,5.2l-.42,44.11h-7.11V306.58q-4.65,2.55-9.35,5v34.9H292l0-31.26q-4.93,2.55-9.92,5l0,26.23h-6.76V323.58q-4.44,2.15-8.89,4.24v18.69H223.56c-13.08,5.27-26.11,10.13-38.92,14.55.58,0,1.17.05,1.76.05H389.79a31.72,31.72,0,0,0,31.72-31.72V235.63Q414.51,240.48,407.16,245.42Zm0-42.23V219.8q7.26-4.94,14.35-9.9V193.2Q414.46,198.18,407.16,203.19ZM397.33,255a7.59,7.59,0,0,0-.58-1.09,7.69,7.69,0,0,0-.8-1q-6.37,4.2-13,8.48h2.21a4.34,4.34,0,0,1,4.34,4.35v9.45a4.34,4.34,0,0,1-4.34,4.35H374.57a4.35,4.35,0,0,1-4.35-4.35v-5.68q-4.91,3.09-9.93,6.23a2.58,2.58,0,0,1,0,.4V283c0,3.05,3.21,5.52,6.25,5.52l24.32,0a6.8,6.8,0,0,0,6.81-6.77l.14-24.12A6.77,6.77,0,0,0,397.33,255Zm-75.93,9c-2.82,0-5.25,1.12-5.27,3.94l-.08,8.5q2.22-1.24,4.42-2.51,8.41-4.81,16.91-9.88Zm-22.47,5.56v16.33c3.14-1.68,6.25-3.39,9.35-5.1V264.41Q303.58,267,298.93,269.56Zm-7,3.81q-5,2.67-9.92,5.26l0,16.19q5-2.56,9.92-5.18ZM270.53,293H253.67q-13.39,6.6-26.51,12.67a3.73,3.73,0,0,1-.28.38,2,2,0,0,1-.24.27.19.19,0,0,1-.07.06l-.12.12-.13.11a.34.34,0,0,1-.06.06,2.86,2.86,0,0,1-.3.22,2.32,2.32,0,0,1-.36.22l-.13.07-.31.14a3,3,0,0,1-.39.13,1,1,0,0,1-.25.07,2,2,0,0,1-.43.08,3.43,3.43,0,0,1-.56,0h-.67q-9.71,4.47-19.23,8.62a2.93,2.93,0,0,0,.39.21,5.82,5.82,0,0,0,.81.35l.39.13.12,0a5.42,5.42,0,0,0,.7.14.86.86,0,0,0,.17,0l.27,0a5.63,5.63,0,0,0,.58,0l24.32.1c3,0,6.25-2.44,6.28-5.48l.05-6.86a2.26,2.26,0,0,1,2.26-2.24h24.09a2.07,2.07,0,0,1,.35,0,2.12,2.12,0,0,1,.7.22l.27.16h0q5-2.44,9.92-4.95v-.43A4.77,4.77,0,0,0,270.53,293Zm-94.32,49.12c-.19-.16-.38-.32-.56-.49a17.86,17.86,0,0,1-2.18-2.42c-.17-.23-.34-.47-.5-.71a15.78,15.78,0,0,1-.83-1.35c-.17-.31-.34-.62-.49-.94s-.39-.86-.56-1.31a17,17,0,0,1-.62-1.91c-.08-.28-.14-.56-.2-.84s-.12-.58-.16-.87-.09-.58-.12-.87q-7.38,3-14.58,5.76c.08.38.17.76.27,1.13s.13.5.2.75c.2.69.41,1.36.65,2l0,0c.09.25.19.51.29.76,0,0,0,.07,0,.11.19.47.38.94.59,1.39v0c.22.47.44.94.67,1.39l0,.1c.24.46.49.92.75,1.36s.47.81.73,1.2.67,1,1,1.5q7.7-2.78,15.56-5.8Z"/><path class="cls-1" d="M390.55,94.53H187.16a31.72,31.72,0,0,0-31.72,31.72V312.48q7.5-2.91,15.19-6V204.78H297.14a2.55,2.55,0,0,1,2.55,2.55V245c1.07-.58,2.14-1.18,3.21-1.78,2.06-1.15,4.1-2.31,6.14-3.47V200a4.53,4.53,0,0,0-4.53-4.53H170.63V126.65a18.12,18.12,0,0,1,18.12-18.12h94.13l-.7,47.15a2.59,2.59,0,0,1-2.44,2.26l-30.57-.08a2.26,2.26,0,0,1-2.25-2.26v-6.85c0-3-3.21-5.51-6.25-5.52l-24.32,0a6.81,6.81,0,0,0-6.82,6.77l-.13,24.12a6.8,6.8,0,0,0,6.76,6.84l24.5.13a6.85,6.85,0,0,0,6.89-6.82l0-4.32c0-1.29.65-2.33,1.94-2.32l36.33.12c2.82,0,5.26-1.12,5.27-3.94l.74-55.24h51.49v86.9h-4.25a9.36,9.36,0,0,0-9.36,9.35v19a9.1,9.1,0,0,0,0,.91c0,.23.05.46.08.68,0,0,0,.06,0,.08s0,.18.05.27.08.42.14.63a2.5,2.5,0,0,0,.07.26c.06.23.13.45.21.67q4.79-2.86,9.5-5.75a1.19,1.19,0,0,1-.13-.25,2.76,2.76,0,0,1-.18-.39,1.14,1.14,0,0,1-.09-.26,4.25,4.25,0,0,1-.2-1.29v-9.45a4.34,4.34,0,0,1,4.35-4.34h10.58a4.34,4.34,0,0,1,4,2.62c0,.09.08.18.11.27a4.2,4.2,0,0,1,.22,1,1.88,1.88,0,0,1,0,.34.31.31,0,0,1,0,.1q4.65-3,9.23-6a8.93,8.93,0,0,0-.23-.89c-.09-.29-.2-.58-.31-.86a8.84,8.84,0,0,0-.38-.83,8.62,8.62,0,0,0-.44-.78c-.16-.26-.32-.5-.5-.74l0,0a12.26,12.26,0,0,0-1.17-1.32c-.21-.2-.44-.4-.67-.59a10.56,10.56,0,0,0-3.64-1.94l-.46-.13a4.87,4.87,0,0,0-.52-.12l-.46-.09-.14,0-.47,0a2.34,2.34,0,0,0-.38,0q-.36,0-.72,0H353v-86.9H389.8a18.12,18.12,0,0,1,18.12,18.12v49.82q7.32-5.21,14.35-10.37V126.25A31.72,31.72,0,0,0,390.55,94.53ZM238.27,166.09a4.35,4.35,0,0,1-4.35,4.35H223.34a4.35,4.35,0,0,1-4.35-4.35v-9.45a4.34,4.34,0,0,1,4.35-4.34h10.58a4.34,4.34,0,0,1,4.35,4.34Z"/><path class="cls-2" d="M565.78,71.07c-7.29-13.22-33.16-25.16-112.53-3.62l2.55,2.84c61.23-14.32,81.83-9.62,88.72,3,8.51,15.63-9.46,41.89-41.58,71.92q-8.55,8-18.37,16.32c-18.4,15.6-39.8,31.84-62.66,47.86q-7.08,5-14.35,9.9c-22.66,15.39-46.38,30.4-69.76,44.25h0q-8.5,5.06-16.91,9.88-2.21,1.26-4.42,2.51-3.87,2.19-7.77,4.35c-3.1,1.71-6.21,3.42-9.35,5.1q-3.49,1.89-7,3.75-4.94,2.61-9.92,5.18c-2.22,1.14-4.44,2.27-6.68,3.4q-4.93,2.5-9.92,4.95c-29.79,14.69-60.2,27.95-89.13,39q-7.86,3-15.56,5.8-14.47,5.25-28.2,9.64-11.48,3.66-22.26,6.68C63.46,377,27.32,380.34,15.86,368.7c-19.92-20.24,21-63.84,56-93.32l-.09-.49s0,0,0-.06c-.22-1.12-.44-2.25-.65-3.39-65.21,56-76.95,87.91-68.82,104.63,9.25,19.05,57.73,18.29,120.4,3C164,427.21,224.9,457.63,292.78,457.63c124.6,0,225.62-102.5,225.62-228.93A232,232,0,0,0,510,166.48C558.64,122,575.77,89.15,565.78,71.07ZM291.49,432.68a203.6,203.6,0,0,1-144.62-60c12.38-3.54,25.16-7.58,38.17-12.07,12.81-4.42,25.84-9.28,38.92-14.55,14.29-5.76,28.64-12,42.86-18.69q4.46-2.09,8.89-4.24c2.24-1.09,4.49-2.19,6.72-3.3q5-2.47,9.92-5,3.51-1.8,7-3.64,4.71-2.47,9.35-5,3.78-2.07,7.53-4.18,4.56-2.56,9.05-5.2c1.95-1.13,3.89-2.28,5.82-3.43q15.33-9.17,29.61-18.06,5-3.14,9.93-6.23l5.67-3.77h0l7-4.35q6.63-4.27,13-8.48,5.72-3.76,11.21-7.46,7.35-4.95,14.35-9.79,40.15-27.76,68.84-51.91a205,205,0,0,1,5,45.17C495.76,341.23,404.31,432.68,291.49,432.68Z"/><path class="cls-2" d="M494,125.78q-2.73-5.49-5.74-10.8c-.14-.26-.29-.51-.44-.77C448.8,45.92,376,0,292.56,0,168,0,66.93,102.49,66.93,228.93a233.1,233.1,0,0,0,3.93,42.74l0,0c.21,1.14.41,2.27.61,3.42,0,0,0,0,0,.06a229.76,229.76,0,0,0,21.1,60c.08.17.17.33.25.49,1.49,2.85,1,2.39,2.64,5.16,1.27,2.19,2.16,3.61,2.26,3.76.52.88,1,1.76,1.56,2.62,4.36,7.13,1.82,3.48,4.58,7.4q10.28-3.41,21.08-7.25Q139.84,342,155.59,336q7.2-2.79,14.58-5.76,16.46-6.63,33.64-14.15,9.51-4.16,19.23-8.62c1.43-.64,2.86-1.31,4.3-2q13.11-6.07,26.51-12.67,14-6.9,28.3-14.39,5-2.59,9.92-5.26,3.51-1.87,7-3.81,4.67-2.54,9.35-5.15l2.93-1.63q24.57-13.77,47.5-28h0c2.15-1.32,4.28-2.66,6.41-4,0,0,0,0,0,0q21.86-13.73,42-27.55,7.31-5,14.35-10c21-14.83,39.6-31.48,57.13-45.55,6.39-5.13,12.3-10.38,18.2-15.34C495.7,129.24,495.4,128.6,494,125.78Zm-72.34,40.77q-7,5.16-14.35,10.37c-12.8,9.12-26.21,18.3-40.18,27.41q-4.57,3-9.23,6-9.19,5.88-18.68,11.69-4.71,2.9-9.5,5.75-10.47,6.28-21.29,12.44c-2,1.16-4.08,2.32-6.14,3.47-1.07.6-2.14,1.2-3.21,1.78q-3.54,2-7.08,3.91-5,2.73-9.92,5.36c-16.67,8.89-33.22,17.16-49.48,24.84h0q-16.31,7.71-32.15,14.61-15.48,6.75-30.41,12.77-7.68,3.1-15.19,6c-14.55,5.65-28.58,10.77-41.93,15.39A203.33,203.33,0,0,1,87,228.65C87,115.84,178.46,24.38,291.27,24.38A204.22,204.22,0,0,1,469.79,129.29C455.1,141.3,439,153.82,421.69,166.55Z"/></g></g></svg>