<svg xmlns="http://www.w3.org/2000/svg" viewBox="0 0 200 200"><defs><style>.cls-1{fill:#f0634d;}.cls-2{fill:#26baff;}.cls-3{fill:#54a870;fill-rule:evenodd;}</style></defs><g id="Layer_2" data-name="Layer 2"><g id="Layer_1-2" data-name="Layer 1"><g id="icon"><g id="Group"><path id="Path" class="cls-1" d="M50,184.53l-47-94A28,28,0,0,1,28,50h94a28,28,0,0,1,25,40.49l-47,94a28,28,0,0,1-50,0Z"/><path id="Path-Copy" class="cls-2" d="M133.31,139.68,102,77a18.66,18.66,0,0,1,16.68-27h62.69A18.66,18.66,0,0,1,198,77l-31.35,62.68a18.65,18.65,0,0,1-33.37,0Z"/><path id="Rectangle" class="cls-3" d="M45,0H155a25,25,0,0,1,25,25h0a25,25,0,0,1-25,25H45A25,25,0,0,1,20,25h0A25,25,0,0,1,45,0Z"/></g></g></g></g></svg>