<svg xmlns="http://www.w3.org/2000/svg" viewBox="0 0 107.47 146.92"><defs><style>.cls-1{fill:#044da0;}.cls-2{fill:#074e9f;}.cls-3{fill:#c3550a;}.cls-4{fill:#fff;}.cls-5{fill:#4d6784;}.cls-6{fill:#c75305;}</style></defs><g id="Layer_2" data-name="Layer 2"><g id="Layer_1-2" data-name="Layer 1"><g id="Layer_2-2" data-name="Layer 2"><g id="Layer_1-2-2" data-name="Layer 1-2"><path class="cls-1" d="M66.43,3.05a25.08,25.08,0,0,0-3,.12,10.19,10.19,0,0,0-2.19.28c1.53.76,3.56.87,4.45,2.78a14.07,14.07,0,0,0-1.79.42c-.22.08-.18.21-.37.39.18.16.21.41.43.48a19.26,19.26,0,0,1,5.84,2.64,11.41,11.41,0,0,1,4.11,7.07l-2.16-.91-.16.16c.94,3.3,1.83,6.59.37,10.07-.5-1-.76-2-2-2.38,0,1,.12,2,.15,3a16.53,16.53,0,0,1-1,7.1c-.37.73-.78,1.45-1.22,2.14l-.33-3.18h-.22c-.37.72-.72,1.45-1.11,2.16a12,12,0,0,1-5,5.12,9.38,9.38,0,0,1-6.55.59,20,20,0,0,1-7.5-4c1.26-.14,2.49-.2,3.7-.42a4.62,4.62,0,0,0,2.78-1.5,9.62,9.62,0,0,1,5.54-3.12,4.11,4.11,0,0,0-4.43-2.71,10.39,10.39,0,0,0-3.44,1.25,4.44,4.44,0,0,1-3.65.3,6.63,6.63,0,0,1-4.8-5.32c-.17-.73.35-1.29,1.33-1.22a19.76,19.76,0,0,1,3.44.57c.63.15.78,0,.87-.58a5.18,5.18,0,0,0-.92-4,27.57,27.57,0,0,0,2.71-1.65,3.67,3.67,0,0,0,1.7-2c.11-.47,0-.72-.52-.78a11.18,11.18,0,0,1-5.41-2,2.26,2.26,0,0,1-1-2.89,27.68,27.68,0,0,1,1.74-3.49c.21-.37.69-.6,1-.89l-.06-.25c-.86.14-1.74.22-2.59.43A7.36,7.36,0,0,0,42,8.71a1.9,1.9,0,0,1-1.09.36c-1.66.17-3.28.26-4.95.39a1.89,1.89,0,0,0-.4.08,1.48,1.48,0,0,1-2-.67h0a2.73,2.73,0,0,1-.26-.61,29.36,29.36,0,0,1,7.88-5.42A27.41,27.41,0,0,1,50.7.14,28.88,28.88,0,0,1,66.43,3.05Z"/><path class="cls-2" d="M16.8,103.49H34.25l-.33.12-8.12,2.82c.43.79.82,1.56,1.26,2.3a77,77,0,0,0,9.19,12.57A62.16,62.16,0,0,0,54,134.85c.37.21-.38.18,0,0a31.15,31.15,0,0,0,7.74-4.78c2-1.68,4-3.42,5.84-5.28a114.09,114.09,0,0,0,10.27-11.91c1.69-2.27,3.36-4.55,5-6.82,0-.11.09-.21.13-.32l-6.64-2.11-.36-.12h14.8c-.89,1.94-1.65,4-2.72,5.85a64.63,64.63,0,0,1-5.78,9.06c-1.74,2.25-3.43,4.55-5.37,6.61-2.4,2.53-4.95,4.92-7.58,7.21-2.42,2.1-5,4-7.6,5.89-2.2,1.55-5.52,3.66-7.82,5.08-.7.39.65.44,0,0-1.66-1.09-4.57-2.68-6.22-3.81-1.88-1.27-3.74-2.59-5.52-4-2-1.6-4.07-3.21-5.93-5a82.84,82.84,0,0,1-8.09-8.66c-1.69-2.19-3.4-4.38-5-6.66a73.93,73.93,0,0,1-5.74-10A9.74,9.74,0,0,0,16.8,103.49Z"/><path class="cls-3" d="M94.5,103.5a89.39,89.39,0,0,1-8.93,15.15c-2.15,3-4.48,5.8-6.84,8.59a72.22,72.22,0,0,1-5.19,5.46,79.15,79.15,0,0,1-11.09,9.06c-2.63,1.73-5.88,3.53-8.57,5.16a108.75,108.75,0,0,1-12-7.71,95.08,95.08,0,0,1-12.13-11,93.94,93.94,0,0,1-8-9.8,91.65,91.65,0,0,1-7.38-12.3c-.4-.82-.71-1.69-1.06-2.54l3.42-.08h.11c.23.5.45,1,.68,1.49a71.86,71.86,0,0,0,5.74,10c1.57,2.28,3.28,4.47,5,6.66a81.79,81.79,0,0,0,8.09,8.66c1.86,1.79,3.9,3.4,5.93,5,1.78,1.4,3.64,2.73,5.52,4,1.65,1.11,4.45,2.6,6.12,3.73,2.3-1.41,5.72-3.44,7.92-5a94.52,94.52,0,0,0,7.6-5.89c2.63-2.28,5.15-4.7,7.55-7.23,1.94-2.06,3.65-4.35,5.38-6.6a64.43,64.43,0,0,0,5.75-9.06c1-1.88,1.77-3.82,2.67-5.76H94.5Z"/><path class="cls-4" d="M35.83,88.49l2.48-4.25,1.13-1.92c.67-1.15.69-1.15,2.17-.91v9.94c0,.76-.24,1-.94.9a6.91,6.91,0,0,0-.91,0V85.49l-.13-.06c-.11.15-.23.3-.33.46l-2.75,4.63c-.43.72-1.08.72-1.52,0-1-1.65-2-3.31-3.15-4.94v6c0,.54-.18.71-.71.7-1.18,0-1.18,0-1.18-1.16v-8.8c0-.35-.26-.92.35-1s1.17-.2,1.59.56C33.17,84.1,34.48,86.21,35.83,88.49Z"/><path class="cls-4" d="M25.4,88.69l1.92,2.72a4.23,4.23,0,0,1,.3.69c-.24.06-.48.14-.72.19a1.52,1.52,0,0,1-1.84-1,1.19,1.19,0,0,0-.16-.23c-1.53-2.18-1.53-2.18-4.32-2v2.47c0,.52-.13.72-.68.72-1.28,0-1.28,0-1.28-1.27V82.06c0-.58.16-.81.77-.79,1.51.06,3,0,4.52.1a3.75,3.75,0,0,1,3.67,3.84v0a3.54,3.54,0,0,1-.22,1.2A3.69,3.69,0,0,1,25.4,88.69Zm-4.77-5.55v4.18c1,0,2,.06,3,0a2.08,2.08,0,1,0,0-4.16c-1-.08-2,0-3,0Z"/><path class="cls-4" d="M48.26,87.69c-.48.52-1,1-1.38,1.51a1.1,1.1,0,0,0-.23.63V91.7c0,.44-.16.58-.59.6-1.37,0-1.37.07-1.37-1.32V82.13c0-.83.4-.81,1-.8s1-.06,1,.78c-.06,1.52,0,3,0,4.33l4.19-3.9a2.79,2.79,0,0,0,.44-.47c.56-.92,1.47-.78,2.31-.71.61,0,.36.41.1.68L50,85.94a4,4,0,0,1-.39.29l3.61,4.38c.29.35.59.69.87,1a.46.46,0,0,1,.12.42.61.61,0,0,1-.41.19,2.3,2.3,0,0,1-2.41-1C50.47,90.07,49.37,89,48.26,87.69Z"/><path class="cls-4" d="M61.31,83.12h-5.4c-.81,0-.8-.37-.82-1s.14-.88.83-.87h7c.35,0,.94,0,1,.23A1.46,1.46,0,0,1,63.69,83c-1.5,1.81-3,3.65-4.42,5.49l-1.52,2c.3,0,.5.06.7.06h5c.72,0,.75.33.75.88s0,.91-.73.9H56a2.33,2.33,0,0,1-1-.21,2.64,2.64,0,0,1,.24-1.47c1-1.35,2.08-2.63,3.14-3.93Z"/><path class="cls-4" d="M88.41,91.92c1-2.3,2-4.59,3-6.87.49-1.09,1-2.16,1.47-3.27.27-.66.78-.41,1.21-.44s.77-.1,1,.42c1.46,3.27,3,6.54,4.44,9.8.24.53.12.76-.47.73a4.33,4.33,0,0,0-.72,0,.68.68,0,0,1-.8-.51h0c-.28-.71-.46-1.66-1-2s-1.53-.13-2.31-.14-1.49,0-2.23,0a.78.78,0,0,0-.92.6v0h0c-.15.45-.38.88-.57,1.32a1.43,1.43,0,0,1-1.92.59h0L88.42,92A.49.49,0,0,0,88.41,91.92ZM95.94,88c-.33-.78-.63-1.48-.93-2.17s-.62-1.36-1-2.16L93,85.9,92.1,88Z"/><path class="cls-4" d="M16.12,82.29v.19c-.5,1.29-.48,1.22-1.79.84A9.16,9.16,0,0,0,11.72,83a1.89,1.89,0,0,0-1.13.53,1,1,0,0,0-.2,1.4h0a1.21,1.21,0,0,0,.35.29,8.37,8.37,0,0,0,1.6.61c.8.25,1.62.42,2.4.72a2.58,2.58,0,0,1,1.83,2.35,2.88,2.88,0,0,1-1.49,2.82,7,7,0,0,1-6.7-.5c-.74-.59,0-1,.18-1.48s.53-.14.81,0a5.27,5.27,0,0,0,3.92.76,2.2,2.2,0,0,0,1.14-.66c.51-.57.22-1.38-.61-1.71-.66-.26-1.38-.4-2.06-.61S10.61,87.22,10,87a2.61,2.61,0,0,1-1.74-2.34A2.87,2.87,0,0,1,9.63,81.9,6.35,6.35,0,0,1,16.12,82.29Z"/><path class="cls-4" d="M88.41,91.92v.13c-1,.08-1.92.2-2.88.23H81.21c-.37,0-.67,0-.67-.52V81.83a.74.74,0,0,1,.49-.5c1.39-.17,1.44-.1,1.44,1.31v7.88h4.72c.69,0,1.06.11.93.89C88.14,91.57,88.32,91.75,88.41,91.92Z"/><path class="cls-4" d="M73.15,90.54h5c.7,0,.72.33.69.84s.15,1-.67.94H71.92c-.54,0-.7-.2-.7-.72V82c0-.53.17-.76.7-.7h.57c.53,0,.7.19.7.72v8Z"/><path class="cls-4" d="M35.75,116.36V111c.47,0,1-.31,1.3.29a3,3,0,0,1,3.46.33,2.92,2.92,0,0,1,2.43-.69,1.83,1.83,0,0,1,1.83,1.77c.07,1.21,0,2.44,0,3.68h-1.2v-2.82c0-.93-.44-1.61-1.23-1.62a1.51,1.51,0,0,0-1.45,1.56v2.86H39.64v-2.81c0-.93-.43-1.6-1.23-1.61A1.48,1.48,0,0,0,37,113.53v2.82Z"/><path class="cls-4" d="M68.11,86.81v4.74c0,.56-.14.82-.72.75a1.09,1.09,0,0,0-.36,0c-.68.1-.91-.16-.9-.87V82.16c0-.85.41-.84,1-.84s1,0,1,.82C68,83.69,68.11,85.25,68.11,86.81Z"/><path class="cls-4" d="M71.59,116.49l-1.19-.28a.76.76,0,0,0-.3,0,13.36,13.36,0,0,1-2,.15,1.57,1.57,0,0,1,0-3.12c.71-.07,1.42,0,2.13,0,.06-.86-.28-1.31-1-1.32a2.24,2.24,0,0,0-1.24.25c-.74.48-1,.08-1.14-.51a3.53,3.53,0,0,1,3.93-.36,2.06,2.06,0,0,1,.73,1.31A31.37,31.37,0,0,1,71.59,116.49ZM70.33,114a11.5,11.5,0,0,0-1.75.16.86.86,0,0,0-.56.62,1.06,1.06,0,0,0,.49.68,1.33,1.33,0,0,0,1.74-.72A1.26,1.26,0,0,0,70.33,114Z"/><path class="cls-4" d="M46,113.68a2.9,2.9,0,1,1,3.07,2.72h-.35A2.91,2.91,0,0,1,46,113.68Zm2.87-1.76a1.66,1.66,0,0,0-1.6,1.71v0h0a1.71,1.71,0,0,0,1.61,1.79h0a1.81,1.81,0,0,0,1.59-1.82,1.73,1.73,0,0,0-1.47-1.7Z"/><path class="cls-4" d="M57.2,115.49v.93H52.4a5.05,5.05,0,0,1,.47-1.15c.82-1.08,1.69-2.13,2.63-3.3H52.61v-.91H57.3a6,6,0,0,1-.52,1.19c-.8,1.06-1.66,2.08-2.59,3.24Z"/><path class="cls-4" d="M66.4,109.6l-2.64,7.54h-.91c.09-.33.16-.62.26-.89.7-2,1.44-4,2.1-6C65.42,109.59,65.7,109.35,66.4,109.6Z"/><path class="cls-4" d="M63.67,109.6,61,117.13h-.91c.09-.33.16-.62.26-.9.7-2,1.44-4,2.1-6C62.68,109.59,63,109.35,63.67,109.6Z"/><path class="cls-4" d="M59.68,111.7a.72.72,0,0,1-.68.75h-.18a.69.69,0,0,1-.76-.6.76.76,0,0,1,0-.15c0-.5.35-.77.9-.76S59.67,111.21,59.68,111.7Z"/><path class="cls-4" d="M58,115.87c.11-.85.52-1,1-.91a.71.71,0,0,1,.63.85.68.68,0,0,1-.69.66,1,1,0,0,1-.24,0A2.69,2.69,0,0,1,58,115.87Z"/><path class="cls-5" d="M102.1,71.76v.54L101,72Z"/><path class="cls-5" d="M94.91,71l.85.14Z"/><path class="cls-5" d="M9.2,71.6l.85-.14Z"/><path class="cls-5" d="M8.33,71.74l.85-.14Z"/><path class="cls-5" d="M98.37,71.6l.85.14Z"/><path class="cls-5" d="M7.47,71.88l.85-.14Z"/><path class="cls-5" d="M99.23,71.74l.85.14Z"/><path class="cls-5" d="M6.6,72l.85-.14Z"/><path class="cls-5" d="M100.1,71.89,101,72Z"/><path class="cls-6" d="M66.43,3.05a19.39,19.39,0,0,1,6.15,3.47c1.43,1.24,2.71,2.66,4.11,4.05L77.12,9h.21a19.38,19.38,0,0,1,3,12l1.56-1.09c0,1.39.1,2.72,0,4a39.91,39.91,0,0,1-1.53,8.17,34.11,34.11,0,0,1-6,11.48,31.27,31.27,0,0,1-6.81,6.38A19.18,19.18,0,0,1,60,52.79a42.05,42.05,0,0,1-6.54.58,30.58,30.58,0,0,1-11.87-2.6,27.77,27.77,0,0,1-6-3.4,21.5,21.5,0,0,1-6.81-9.22,31.33,31.33,0,0,1-2.06-9.55,37.64,37.64,0,0,1,.17-6.88,5.42,5.42,0,0,0,0-.57h-.14l-1,.51a3.8,3.8,0,0,1-.12-1c.43-2.38,1.32-4.51,3.51-5.84.4-.24.33-.56.3-.93A16.55,16.55,0,0,1,30,7a3.67,3.67,0,0,1,1.59-2.2,3.52,3.52,0,0,1,.68-.26,23.68,23.68,0,0,0,1,3.69A2,2,0,0,0,35,9.49h.89c1.67-.13,3.34-.23,5-.4A2.08,2.08,0,0,0,42,8.6a7.49,7.49,0,0,1,3.23-1.88c.84-.21,1.72-.29,2.59-.43l.06.25c-.36.29-.84.51-1,.89a27.68,27.68,0,0,0-1.74,3.49,2.26,2.26,0,0,0,1,2.89,11.18,11.18,0,0,0,5.41,2c.53,0,.63.3.52.78a3.67,3.67,0,0,1-1.7,2c-.84.62-1.79,1.1-2.71,1.65a5.18,5.18,0,0,1,.92,4c-.09.6-.24.74-.87.58a19.76,19.76,0,0,0-3.44-.57c-1-.07-1.5.49-1.33,1.22a6.63,6.63,0,0,0,4.8,5.32,4.44,4.44,0,0,0,3.65-.3,10.39,10.39,0,0,1,3.44-1.25A4.1,4.1,0,0,1,59.22,32a9.62,9.62,0,0,0-5.54,3.12,4.62,4.62,0,0,1-2.78,1.5c-1.21.22-2.44.28-3.7.42a20,20,0,0,0,7.5,4,9.38,9.38,0,0,0,6.55-.59,12,12,0,0,0,5-5.12c.39-.71.74-1.44,1.11-2.16h.22l.33,3.18c.44-.69.85-1.41,1.22-2.14a16.53,16.53,0,0,0,1-7.1c0-1-.1-1.93-.15-3,1.23.36,1.49,1.41,2,2.38,1.46-3.48.57-6.78-.37-10.07l.16-.16,1.88.73a10.28,10.28,0,0,0-4-6.61A19.08,19.08,0,0,0,63.91,7.6c-.21-.07-.37-.31-.56-.47.19-.19.34-.47.57-.54a11.08,11.08,0,0,1,1.6-.33c-.89-1.91-2.79-2-4.33-2.76A10.26,10.26,0,0,1,63.42,3,10.46,10.46,0,0,1,66.43,3.05Z"/><path class="cls-1" d="M24.92,33.15c-.08,2-.12,4.08-.12,6.26v2.64s-3.41,0-7.54-.07V65l24.34.62L5.49,72.29A242.13,242.13,0,0,1,3,30.53C14,32.21,17.91,32.75,24.92,33.15Z"/><path class="cls-3" d="M24.92,33.15c-7.41-.3-14.7-1.54-22-2.62A270.1,270.1,0,0,0,5.5,72.29L3,72.78A219.94,219.94,0,0,1,.2,26.94a107.13,107.13,0,0,0,24.72,3.68C24.9,31.56,24.93,32.21,24.92,33.15Z"/><path class="cls-1" d="M82.54,33.15c.08,2,.13,4.11.12,6.26v2.64s3.41,0,7.53-.07V65l-24.34.62L102,72.29a242.13,242.13,0,0,0,2.52-41.76C93.44,32.21,89.54,32.75,82.54,33.15Z"/><path class="cls-3" d="M82.54,33.15c7.4-.3,14.7-1.54,21.95-2.62A270.1,270.1,0,0,1,102,72.29l2.47.49a219.94,219.94,0,0,0,2.83-45.84,107,107,0,0,1-24.72,3.68C82.55,31.56,82.52,32.21,82.54,33.15Z"/></g></g></g></g></svg>