<svg xmlns="http://www.w3.org/2000/svg" viewBox="0 0 1068.11 1044.49"><defs><style>.cls-1{fill:#4c4c4c;}.cls-2{fill:#343434;}.cls-3,.cls-4{fill:#8c00ff;}.cls-3,.cls-5{stroke:#303030;stroke-miterlimit:10;stroke-width:3px;}.cls-5{fill:#fff;}</style></defs><g id="Layer_2" data-name="Layer 2"><g id="Layer_1-2" data-name="Layer 1"><polygon class="cls-1" points="534.06 0.51 534.05 975.24 79.93 719.63 0.56 104.55 534.06 0.51"/><polygon class="cls-2" points="534.06 0.51 534.06 975.24 988.18 719.63 1067.56 104.55 534.06 0.51"/><path class="cls-2" d="M534.06,0,.46,104.06l-.46.09L79.43,719.7l0,.25,454.1,255.59v.56l.5-.28.49.28v-.56L988.43,720.07l.22-.12,79.4-615.34.06-.46Zm-.51,974.39L80.39,719.32,1.11,105,533.56,1.12ZM987.72,719.32,534.56,974.39V1.12L1067,105Z"/><polygon class="cls-3" points="343.02 443.81 343.02 272.88 220.09 149.95 220.09 697.28 343.02 820.21 343.02 590.32 571.26 818.54 717.77 818.54 343.02 443.81"/><path class="cls-3" d="M572.07,231.28V404.85l28.27,28.27,84,84V164.46a56.28,56.28,0,0,0-56.23-56.21H226.56l123,123Z"/><polygon class="cls-4" points="205.58 97.46 205.69 97.57 205.79 97.46 205.58 97.46"/><polygon class="cls-5" points="392.44 917.94 515.37 1040.87 515.37 445.24 392.44 322.31 392.44 917.94"/><path class="cls-5" d="M805.57,280.12H399.69L522.6,403H749.55V576.41l28.24,28.24,84,83.92V336.28A56.23,56.23,0,0,0,805.57,280.12Z"/></g></g></svg>